<svg id="svg" version="1.1" xmlns="http://www.w3.org/2000/svg" xmlns:xlink="http://www.w3.org/1999/xlink" width="400" height="170.8286464191976" viewBox="0, 0, 400,170.8286464191976"><g id="svgg"><path id="path0" d="M315.417 64.263 C 311.178 64.853,309.063 65.364,307.000 66.293 C 306.496 66.520,305.797 66.808,305.448 66.933 C 304.593 67.238,302.770 68.330,300.434 69.939 C 300.149 70.135,299.294 70.908,298.532 71.658 L 297.148 73.022 296.199 72.909 C 295.677 72.846,293.975 72.547,292.417 72.242 C 287.693 71.320,287.004 71.260,281.250 71.265 C 275.436 71.271,275.080 71.311,271.750 72.346 C 269.460 73.058,268.887 73.340,267.875 74.254 C 265.970 75.975,265.812 79.774,267.566 81.667 C 267.864 81.987,268.237 82.460,268.397 82.717 C 268.843 83.438,269.051 83.420,270.363 82.553 C 271.666 81.691,271.924 81.575,274.250 80.803 C 277.887 79.595,284.774 79.576,290.583 80.757 C 293.163 81.281,292.959 81.129,292.602 82.262 C 292.441 82.770,292.248 83.538,292.171 83.968 C 292.094 84.398,291.734 85.800,291.370 87.083 C 291.007 88.367,290.597 89.867,290.460 90.417 C 290.323 90.967,289.982 92.242,289.701 93.250 C 288.006 99.347,287.667 100.612,287.667 100.835 C 287.667 100.972,287.337 102.246,286.932 103.667 C 286.528 105.087,286.086 106.700,285.950 107.250 C 285.813 107.800,285.500 108.925,285.254 109.750 C 285.007 110.575,284.746 111.587,284.673 112.000 C 284.600 112.412,284.273 113.650,283.946 114.751 C 283.620 115.851,283.244 117.239,283.112 117.834 C 282.980 118.430,282.607 119.854,282.282 121.000 C 281.745 122.896,280.776 126.485,279.809 130.167 C 279.290 132.143,276.511 135.740,274.760 136.704 C 274.548 136.821,273.971 137.181,273.479 137.505 C 269.699 139.988,265.779 139.446,263.915 136.182 C 262.978 134.541,263.198 130.199,264.411 126.423 C 264.734 125.418,265.044 124.331,265.100 124.006 C 265.156 123.682,265.532 122.265,265.935 120.858 C 266.337 119.451,266.667 118.181,266.667 118.035 C 266.667 117.890,266.962 116.791,267.323 115.594 C 267.684 114.396,268.096 112.892,268.237 112.250 C 268.379 111.608,268.720 110.333,268.995 109.417 C 269.270 108.500,269.497 107.737,269.498 107.720 C 269.503 107.645,267.467 107.100,266.417 106.895 C 263.287 106.284,261.043 107.282,259.875 109.805 L 259.463 110.694 259.014 110.264 C 258.767 110.027,258.506 109.833,258.435 109.833 C 258.363 109.833,257.992 109.610,257.611 109.337 C 255.341 107.712,250.441 107.109,246.900 108.018 C 246.176 108.204,245.358 108.399,245.083 108.452 C 244.808 108.505,244.030 108.837,243.353 109.191 C 242.677 109.544,242.059 109.833,241.982 109.833 C 241.784 109.833,239.929 111.024,239.861 111.195 C 239.831 111.271,239.711 111.333,239.595 111.333 C 238.753 111.333,232.333 118.024,232.333 118.902 C 232.333 118.971,232.073 119.419,231.755 119.899 C 231.436 120.378,231.053 121.066,230.903 121.427 C 230.753 121.788,230.408 122.561,230.137 123.144 C 229.157 125.247,228.167 129.963,228.167 132.525 C 228.167 135.458,229.267 139.728,230.408 141.224 C 230.642 141.531,230.833 141.841,230.833 141.914 C 230.833 142.362,233.648 145.187,234.605 145.700 C 234.943 145.881,235.312 146.122,235.426 146.235 C 235.824 146.633,238.322 147.395,240.167 147.681 C 245.189 148.459,251.749 146.013,256.001 141.777 L 256.643 141.136 257.113 141.841 C 257.372 142.228,257.704 142.725,257.851 142.945 C 258.999 144.659,261.852 146.549,264.333 147.239 C 268.909 148.510,275.437 147.274,278.804 144.499 C 279.137 144.224,279.496 144.000,279.601 144.000 C 279.706 144.000,279.878 143.897,279.982 143.771 C 280.102 143.627,280.659 143.514,281.494 143.466 C 282.220 143.424,282.916 143.306,283.039 143.203 C 283.214 143.058,283.537 143.278,284.518 144.217 C 291.445 150.838,303.316 148.147,310.879 138.241 C 312.264 136.427,314.667 132.157,314.667 131.509 C 314.667 131.398,314.883 130.694,315.147 129.945 C 316.841 125.138,316.702 119.544,314.783 115.333 C 313.502 112.520,309.943 109.055,307.750 108.484 C 307.475 108.413,306.650 108.185,305.917 107.978 C 304.041 107.449,300.533 107.458,298.583 107.996 C 297.850 108.199,296.953 108.436,296.591 108.524 C 296.228 108.612,295.648 108.843,295.301 109.038 C 294.342 109.577,294.332 109.659,295.851 104.167 C 296.218 102.837,296.619 101.300,296.743 100.750 C 296.866 100.200,297.081 99.375,297.221 98.917 C 297.361 98.458,297.635 97.483,297.830 96.750 C 298.026 96.017,298.510 94.217,298.907 92.750 C 299.304 91.283,299.722 89.671,299.837 89.167 C 299.952 88.662,300.255 87.564,300.511 86.726 C 300.767 85.887,301.057 84.769,301.154 84.240 C 301.252 83.712,301.365 83.246,301.405 83.206 C 301.445 83.166,302.702 83.437,304.197 83.809 C 305.693 84.180,307.629 84.596,308.500 84.733 C 309.371 84.870,310.833 85.108,311.750 85.261 C 319.737 86.595,325.928 84.340,328.424 79.187 C 331.897 72.018,328.879 66.181,320.833 64.505 C 319.871 64.304,316.273 64.144,315.417 64.263 M337.372 70.245 C 335.642 71.051,334.489 72.352,334.244 73.778 C 334.183 74.129,333.809 75.579,333.413 77.000 C 331.949 82.249,331.625 83.441,331.375 84.500 C 331.234 85.096,330.793 86.702,330.393 88.070 C 329.994 89.438,329.667 90.680,329.667 90.831 C 329.667 90.981,329.337 92.225,328.935 93.594 C 328.532 94.963,328.168 96.308,328.125 96.583 C 328.053 97.053,327.720 98.268,325.905 104.698 C 325.499 106.135,325.167 107.434,325.167 107.584 C 325.167 107.733,324.870 108.845,324.507 110.053 C 324.143 111.261,323.740 112.737,323.609 113.333 C 323.479 113.929,323.096 115.392,322.758 116.583 C 321.208 122.048,320.775 123.630,320.662 124.250 C 320.596 124.617,320.309 125.793,320.026 126.864 C 316.950 138.501,323.603 148.416,334.067 147.788 C 338.413 147.528,343.475 145.253,346.749 142.091 C 347.345 141.514,347.833 141.100,347.833 141.170 C 347.833 142.255,354.392 146.992,355.910 147.002 C 356.097 147.004,356.580 147.120,356.984 147.260 C 359.625 148.180,363.765 148.202,367.750 147.319 C 370.544 146.699,372.012 146.239,373.039 145.662 C 373.199 145.573,373.452 145.500,373.603 145.500 C 373.753 145.500,374.523 145.169,375.313 144.764 C 376.103 144.360,376.863 143.987,377.000 143.936 C 377.710 143.675,381.068 141.399,382.500 140.208 C 384.421 138.612,388.000 134.833,388.000 134.401 C 388.000 134.335,388.191 134.031,388.424 133.725 C 389.497 132.318,389.806 130.413,389.234 128.727 C 388.958 127.914,387.750 126.167,387.464 126.167 C 387.375 126.167,387.102 126.028,386.859 125.858 C 386.296 125.465,384.206 124.833,383.467 124.833 C 382.904 124.833,382.901 124.837,382.436 126.292 C 382.179 127.094,381.753 128.087,381.490 128.500 C 381.227 128.912,380.864 129.512,380.684 129.833 C 380.358 130.415,377.305 133.667,377.086 133.667 C 377.022 133.667,376.585 134.004,376.113 134.417 C 375.642 134.829,375.205 135.167,375.143 135.167 C 375.082 135.167,374.518 135.504,373.890 135.916 C 373.263 136.329,372.692 136.666,372.622 136.666 C 372.551 136.667,371.862 136.965,371.090 137.330 C 370.318 137.695,369.401 138.062,369.052 138.145 C 368.702 138.228,367.667 138.504,366.750 138.758 C 363.801 139.574,359.203 139.338,358.092 138.313 C 358.005 138.232,357.811 138.167,357.663 138.167 C 356.221 138.167,353.929 134.557,353.721 131.958 C 353.606 130.521,353.624 130.503,354.609 131.067 C 357.014 132.442,362.580 132.362,365.775 130.906 C 366.064 130.774,366.373 130.667,366.463 130.667 C 366.899 130.667,369.534 129.251,370.858 128.306 C 372.088 127.428,374.500 125.321,374.500 125.125 C 374.500 125.047,374.745 124.731,375.045 124.422 C 375.567 123.885,375.750 123.590,376.864 121.484 C 378.229 118.903,377.935 115.859,375.972 112.260 C 375.675 111.715,374.090 110.094,373.544 109.775 C 373.363 109.670,372.909 109.380,372.537 109.131 C 370.253 107.607,365.881 107.056,362.917 107.919 C 362.367 108.080,361.569 108.307,361.145 108.424 C 355.114 110.092,347.848 117.381,346.136 123.480 C 345.644 125.233,345.003 128.361,345.001 129.015 C 344.999 129.990,344.573 131.123,343.847 132.084 C 343.473 132.580,343.167 133.050,343.167 133.129 C 343.167 133.318,339.913 136.558,339.634 136.646 C 339.514 136.684,339.134 136.937,338.788 137.208 C 337.350 138.335,334.193 139.304,332.673 139.085 C 329.628 138.647,328.138 136.539,328.138 132.667 C 328.137 130.285,328.137 130.284,329.077 126.917 C 329.410 125.725,330.012 123.513,330.417 122.000 C 330.821 120.487,331.493 118.013,331.911 116.500 C 332.329 114.987,332.670 113.642,332.669 113.510 C 332.668 113.379,332.967 112.278,333.333 111.063 C 333.700 109.849,334.000 108.720,334.000 108.553 C 333.999 108.386,334.330 107.087,334.734 105.667 C 335.139 104.246,335.581 102.633,335.717 102.083 C 335.853 101.533,336.166 100.408,336.413 99.583 C 336.660 98.758,336.921 97.746,336.994 97.333 C 337.067 96.921,337.394 95.683,337.720 94.583 C 338.046 93.483,338.429 92.058,338.570 91.417 C 338.712 90.775,339.027 89.612,339.269 88.833 C 339.512 88.054,339.809 86.967,339.929 86.417 C 340.129 85.502,340.646 83.581,342.035 78.583 C 342.315 77.575,342.654 76.300,342.789 75.750 C 342.923 75.200,343.250 73.962,343.516 72.999 C 344.080 70.957,344.104 70.668,343.708 70.663 C 343.548 70.661,342.783 70.474,342.009 70.247 C 340.112 69.690,338.566 69.689,337.372 70.245 M319.811 73.259 C 321.393 73.729,321.292 74.877,319.579 75.887 C 317.653 77.022,315.828 77.145,311.917 76.406 C 310.633 76.163,309.171 75.915,308.667 75.854 L 307.750 75.744 308.500 75.302 C 311.700 73.418,317.075 72.446,319.811 73.259 M14.840 76.542 C 14.349 81.692,15.404 82.698,22.333 83.683 C 26.768 84.314,26.421 84.114,25.939 85.756 C 25.725 86.486,25.426 87.608,25.274 88.250 C 25.123 88.892,24.807 90.054,24.571 90.833 C 24.336 91.612,24.082 92.587,24.007 93.000 C 23.932 93.412,23.562 94.774,23.185 96.025 C 22.808 97.277,22.500 98.426,22.500 98.578 C 22.500 98.731,22.203 99.845,21.840 101.053 C 21.477 102.261,21.074 103.737,20.945 104.333 C 20.816 104.929,20.435 106.392,20.098 107.583 C 19.761 108.775,19.253 110.575,18.968 111.583 C 18.684 112.592,18.339 113.904,18.202 114.500 C 18.064 115.096,17.635 116.708,17.247 118.083 C 16.860 119.458,16.391 121.183,16.205 121.917 C 16.019 122.650,15.672 123.907,15.434 124.711 C 15.195 125.514,15.000 126.283,15.000 126.418 C 15.000 126.554,14.672 127.809,14.270 129.207 C 13.869 130.606,13.413 132.275,13.258 132.917 C 12.886 134.451,13.338 134.289,8.077 134.770 C 2.922 135.241,2.712 135.298,1.430 136.561 C 0.167 137.807,0.045 138.319,0.130 142.042 L 0.167 143.667 15.975 143.667 L 31.783 143.667 31.895 141.563 C 32.045 138.757,31.785 137.777,30.583 136.614 C 29.223 135.298,28.950 135.211,25.182 134.889 C 23.340 134.732,21.756 134.555,21.661 134.496 C 21.494 134.393,21.657 133.702,22.919 129.167 C 23.162 128.296,23.515 126.983,23.704 126.250 C 23.894 125.517,24.271 124.129,24.543 123.167 C 24.816 122.204,25.153 120.929,25.293 120.333 C 25.433 119.737,25.874 118.131,26.274 116.763 C 26.673 115.395,27.000 114.146,27.000 113.987 C 27.000 113.829,27.329 112.585,27.731 111.224 C 28.134 109.863,28.498 108.525,28.541 108.250 C 28.584 107.975,28.934 106.625,29.319 105.250 C 29.704 103.875,30.250 101.925,30.532 100.917 C 30.814 99.908,31.152 98.633,31.283 98.083 C 31.414 97.533,31.854 95.921,32.261 94.500 C 32.668 93.079,33.000 91.798,33.000 91.652 C 33.000 91.507,33.338 90.280,33.750 88.926 C 34.162 87.571,34.500 86.340,34.501 86.190 C 34.501 86.040,34.578 85.643,34.671 85.309 L 34.839 84.702 38.711 84.643 C 43.107 84.575,43.626 84.443,45.125 83.002 C 46.365 81.810,46.500 81.372,46.500 78.532 L 46.500 76.051 44.724 75.942 C 43.747 75.882,42.331 75.833,41.577 75.833 C 40.823 75.833,34.939 75.496,28.500 75.083 C 22.061 74.671,16.401 74.333,15.922 74.333 L 15.051 74.333 14.840 76.542 M175.762 76.595 C 175.618 76.739,175.455 77.058,175.400 77.303 C 175.345 77.549,174.970 78.793,174.567 80.067 C 174.163 81.342,173.832 82.505,173.831 82.651 C 173.829 82.797,173.724 83.217,173.597 83.583 L 173.365 84.250 169.485 84.376 C 165.108 84.518,164.833 84.589,164.833 85.574 C 164.833 86.474,164.965 86.641,166.467 87.639 C 168.549 89.023,169.017 89.339,170.190 90.151 C 170.773 90.555,171.265 90.895,171.284 90.907 C 171.360 90.956,170.731 93.229,170.055 95.341 C 168.978 98.710,169.089 99.500,170.641 99.500 C 171.291 99.500,171.525 99.409,172.005 98.969 C 172.323 98.677,172.854 98.246,173.184 98.011 C 174.402 97.144,176.589 95.445,176.768 95.226 C 177.056 94.875,177.296 94.947,178.309 95.689 C 180.785 97.502,183.622 99.327,183.971 99.330 C 184.971 99.339,185.542 98.142,185.067 97.036 C 184.920 96.696,184.550 95.655,184.245 94.723 C 183.939 93.792,183.532 92.686,183.340 92.265 C 182.625 90.695,182.728 90.483,184.918 89.000 C 185.121 88.862,185.691 88.429,186.185 88.037 C 186.679 87.646,187.308 87.158,187.583 86.954 C 188.814 86.042,189.048 85.699,188.949 84.956 C 188.793 83.798,188.763 83.791,184.333 83.918 L 180.417 84.031 180.125 83.305 C 179.965 82.906,179.833 82.484,179.833 82.368 C 179.833 82.251,179.507 81.314,179.109 80.286 C 178.710 79.258,178.293 78.094,178.182 77.699 C 177.828 76.438,176.518 75.840,175.762 76.595 M103.417 105.480 C 102.429 105.614,101.180 106.315,100.274 107.245 C 99.505 108.034,97.832 110.060,97.563 110.529 C 97.460 110.708,97.190 111.056,96.963 111.302 C 96.499 111.806,94.659 114.573,94.451 115.080 C 94.377 115.261,94.210 115.527,94.081 115.670 C 93.332 116.497,91.419 120.821,90.323 124.167 C 89.425 126.906,88.494 129.942,88.497 130.122 C 88.500 130.314,87.965 131.453,87.216 132.851 C 86.645 133.917,84.856 135.960,83.585 136.998 C 76.465 142.817,70.303 139.207,72.476 130.492 C 73.696 125.599,73.589 121.295,72.174 118.383 C 71.986 117.998,71.833 117.614,71.833 117.529 C 71.833 117.263,71.016 115.899,70.667 115.584 C 70.484 115.418,70.333 115.210,70.333 115.121 C 70.333 114.904,68.515 112.945,68.182 112.804 C 68.036 112.742,67.655 112.462,67.335 112.181 C 64.492 109.690,57.165 109.437,52.964 111.686 C 52.582 111.890,52.584 111.869,53.103 110.034 C 53.625 108.189,53.851 108.473,51.343 107.829 C 48.683 107.146,48.180 107.202,45.953 108.434 C 45.121 108.894,43.500 112.489,43.500 113.875 C 43.500 114.053,43.162 115.342,42.750 116.741 C 42.337 118.140,42.000 119.413,42.000 119.570 C 42.000 119.726,41.693 120.881,41.317 122.136 C 40.942 123.390,40.577 124.754,40.508 125.167 C 40.390 125.868,40.103 126.917,38.230 133.500 C 37.826 134.921,37.497 136.187,37.498 136.314 C 37.499 136.440,37.201 137.603,36.835 138.897 C 36.149 141.324,35.779 143.001,35.902 143.124 C 36.155 143.378,39.269 143.994,40.309 143.997 C 42.281 144.002,44.390 142.617,44.832 141.026 C 45.444 138.825,45.741 137.730,46.104 136.333 C 46.330 135.462,46.822 133.662,47.196 132.333 C 47.571 131.004,47.947 129.617,48.032 129.250 C 48.607 126.775,52.624 121.340,54.631 120.320 C 54.880 120.194,55.308 119.928,55.583 119.730 C 58.073 117.937,61.880 117.960,63.481 119.776 C 64.320 120.728,64.442 120.971,64.733 122.283 C 65.177 124.278,65.098 125.346,64.208 129.417 C 63.419 133.027,64.008 138.680,65.420 141.051 C 65.739 141.586,66.000 142.062,66.000 142.108 C 66.000 142.909,70.530 147.000,71.417 147.000 C 71.526 147.000,71.833 147.109,72.099 147.241 C 75.013 148.694,81.453 148.184,84.583 146.252 C 84.950 146.025,85.498 145.723,85.802 145.580 C 86.894 145.066,90.512 141.824,91.379 140.583 C 91.571 140.308,91.977 139.802,92.281 139.458 C 92.585 139.114,92.833 138.753,92.833 138.656 C 92.833 138.560,93.051 138.204,93.316 137.865 C 93.922 137.093,95.539 134.007,96.012 132.721 C 96.208 132.187,96.663 130.887,97.023 129.833 C 97.384 128.779,97.748 127.767,97.833 127.583 C 98.360 126.453,98.833 125.259,98.833 125.062 C 98.833 124.936,99.171 124.124,99.583 123.259 C 99.996 122.394,100.333 121.631,100.333 121.565 C 100.333 121.499,100.671 120.903,101.083 120.241 C 101.496 119.579,101.833 118.985,101.833 118.920 C 101.833 118.855,102.171 118.358,102.583 117.816 C 102.996 117.273,103.336 116.774,103.339 116.706 C 103.383 115.673,104.946 117.217,105.013 118.360 C 105.020 118.483,105.245 118.921,105.513 119.333 C 105.781 119.746,106.154 120.402,106.341 120.792 C 106.529 121.181,106.979 121.946,107.341 122.492 C 107.703 123.037,108.000 123.536,108.000 123.599 C 108.000 123.662,108.285 124.172,108.633 124.732 C 111.558 129.435,112.104 134.416,110.031 137.495 C 107.866 140.711,103.880 140.701,101.397 137.474 C 100.486 136.290,100.331 136.287,98.333 137.416 C 97.646 137.804,96.918 138.173,96.716 138.236 C 95.408 138.645,94.559 141.482,95.307 142.948 C 95.922 144.154,99.344 147.000,100.180 147.000 C 100.345 147.000,100.519 147.063,100.567 147.141 C 101.281 148.296,108.147 148.384,110.731 147.271 C 111.016 147.148,111.439 146.971,111.671 146.877 C 114.336 145.805,117.586 142.056,118.501 139.000 C 119.268 136.439,119.357 135.883,119.449 133.039 C 119.594 128.567,118.336 124.311,115.708 120.380 C 115.502 120.071,115.333 119.739,115.333 119.643 C 115.333 119.546,115.034 119.004,114.668 118.438 C 113.952 117.331,113.646 116.787,112.533 114.643 C 112.139 113.883,111.668 113.022,111.487 112.730 C 110.996 111.935,110.165 109.225,110.053 108.049 L 109.953 107.015 108.268 106.278 C 106.457 105.486,105.068 105.257,103.417 105.480 M134.500 106.390 C 133.204 106.768,132.207 107.337,131.805 107.928 C 131.591 108.241,131.370 108.498,131.312 108.499 C 131.152 108.501,130.500 110.100,130.500 110.491 C 130.500 110.681,130.162 112.001,129.750 113.426 C 129.337 114.850,129.000 116.153,129.000 116.322 C 129.000 116.490,128.662 117.804,128.250 119.241 C 127.837 120.678,127.500 121.987,127.500 122.149 C 127.500 122.312,127.163 123.601,126.751 125.014 C 126.338 126.427,126.001 127.738,126.001 127.928 C 126.000 128.117,125.662 129.425,125.250 130.833 C 124.837 132.242,124.500 133.532,124.500 133.699 C 124.500 133.866,124.162 135.168,123.750 136.592 C 123.337 138.017,123.000 139.316,123.000 139.479 C 123.000 139.643,122.662 140.952,122.250 142.389 C 121.837 143.826,121.499 145.133,121.498 145.293 C 121.497 145.453,121.160 146.746,120.750 148.167 C 120.340 149.587,120.005 150.862,120.006 151.000 C 120.007 151.137,119.675 152.487,119.269 154.000 C 117.661 159.988,117.451 160.789,117.214 161.833 C 116.950 162.998,116.746 163.778,115.993 166.488 C 115.728 167.444,115.489 168.562,115.464 168.971 L 115.417 169.716 116.667 170.128 C 119.305 170.997,121.474 170.815,123.098 169.587 C 124.566 168.477,124.674 168.176,127.018 158.667 C 127.210 157.887,127.697 156.002,128.100 154.477 C 128.503 152.952,128.834 151.564,128.834 151.394 C 128.834 151.223,129.171 149.883,129.582 148.417 C 129.993 146.950,130.330 145.544,130.331 145.292 C 130.334 144.700,130.500 144.714,131.460 145.387 C 134.273 147.358,137.759 148.165,141.375 147.682 C 142.693 147.506,143.294 147.367,145.167 146.803 C 148.343 145.847,153.584 142.009,155.796 139.019 C 156.042 138.688,156.488 138.122,156.788 137.762 C 157.088 137.401,157.333 137.053,157.333 136.987 C 157.333 136.921,157.594 136.480,157.913 136.006 C 158.645 134.918,160.138 131.834,160.414 130.840 C 160.529 130.424,160.815 129.390,161.050 128.542 C 164.263 116.920,157.348 106.766,146.775 107.581 C 144.966 107.720,141.853 108.482,140.693 109.070 C 140.220 109.309,139.833 109.476,139.833 109.440 C 139.833 109.405,139.946 109.056,140.083 108.667 C 140.467 107.578,140.416 107.189,139.875 107.083 C 139.623 107.033,138.879 106.845,138.222 106.666 C 136.579 106.217,135.394 106.129,134.500 106.390 M173.123 106.570 C 171.006 107.440,170.156 108.599,169.506 111.500 C 169.393 112.004,168.979 113.617,168.586 115.083 C 168.193 116.550,167.717 118.350,167.529 119.083 C 167.340 119.817,166.989 121.167,166.748 122.083 C 164.835 129.354,164.833 129.363,164.835 132.406 C 164.836 135.726,164.979 136.461,166.303 139.950 C 169.406 148.129,180.643 150.265,189.380 144.336 C 190.560 143.536,190.662 143.500,191.741 143.500 C 194.887 143.500,196.515 141.575,197.659 136.500 C 197.772 135.996,198.196 134.421,198.600 133.000 C 199.003 131.579,199.334 130.245,199.334 130.035 C 199.332 127.834,202.584 122.145,205.135 119.889 C 207.275 117.995,208.529 117.251,210.749 116.557 C 215.961 114.927,219.699 120.575,217.390 126.592 C 217.260 126.931,220.682 127.720,221.844 127.618 C 223.826 127.445,225.891 125.833,226.384 124.072 C 227.217 121.096,225.837 115.332,223.735 113.005 C 223.422 112.659,223.167 112.309,223.167 112.226 C 223.167 112.044,221.029 110.053,220.538 109.779 C 220.346 109.671,219.843 109.372,219.420 109.114 C 218.688 108.666,218.203 108.495,215.917 107.878 C 214.576 107.516,210.988 107.517,209.500 107.879 C 207.407 108.388,206.409 108.699,205.643 109.082 L 204.869 109.468 205.002 108.943 C 205.379 107.446,205.363 107.000,204.932 107.000 C 204.709 107.000,203.721 106.806,202.736 106.568 C 198.308 105.501,195.900 107.365,194.856 112.667 C 194.775 113.079,194.403 114.504,194.031 115.833 C 193.297 118.450,192.029 123.143,191.623 124.750 C 191.484 125.300,191.142 126.612,190.864 127.667 C 190.586 128.721,190.279 129.938,190.181 130.371 C 189.659 132.687,185.171 137.185,182.307 138.263 C 179.584 139.289,178.189 139.350,176.485 138.519 C 173.414 137.021,172.808 133.117,174.650 126.705 C 175.026 125.396,175.334 124.196,175.335 124.038 C 175.337 123.880,175.562 123.000,175.835 122.083 C 176.109 121.167,176.454 119.892,176.602 119.250 C 176.750 118.608,177.200 116.896,177.602 115.445 C 178.004 113.994,178.333 112.674,178.333 112.511 C 178.333 112.348,178.633 111.199,179.000 109.957 C 179.830 107.144,179.837 107.001,179.125 106.997 C 178.827 106.995,177.950 106.807,177.175 106.580 C 175.409 106.062,174.364 106.059,173.123 106.570 M393.333 110.766 C 389.881 112.052,388.537 114.659,389.572 118.064 C 391.307 123.773,400.000 122.147,400.000 116.112 C 400.000 113.995,398.560 111.333,397.415 111.333 C 397.272 111.333,396.962 111.207,396.726 111.053 C 396.295 110.770,393.873 110.565,393.333 110.766 M396.219 111.820 C 399.443 113.202,400.189 117.183,397.654 119.473 C 394.818 122.032,390.097 119.913,390.107 116.085 C 390.115 113.004,393.489 110.650,396.219 111.820 M392.792 112.925 C 392.723 112.997,392.667 114.431,392.667 116.111 L 392.667 119.167 393.333 119.167 L 394.000 119.167 394.000 118.000 C 394.000 116.317,394.633 116.495,395.418 118.397 C 395.733 119.161,395.741 119.167,396.534 119.167 C 396.974 119.167,397.333 119.128,397.333 119.081 C 397.333 118.988,397.301 118.919,396.547 117.369 L 396.037 116.322 396.518 115.841 C 397.305 115.054,397.064 113.644,396.065 113.189 C 395.524 112.942,392.973 112.737,392.792 112.925 M395.468 114.776 C 395.528 115.195,394.952 115.667,394.380 115.667 C 394.047 115.667,394.000 115.583,394.000 114.990 L 394.000 114.314 394.708 114.365 C 395.287 114.407,395.426 114.482,395.468 114.776 M150.083 116.846 C 155.869 119.618,152.814 131.882,145.035 137.111 C 136.801 142.646,131.090 135.556,135.902 125.773 C 136.414 124.731,137.058 123.596,137.333 123.250 C 137.608 122.904,137.833 122.565,137.833 122.497 C 137.833 122.385,138.274 121.880,139.528 120.554 C 142.979 116.906,147.150 115.440,150.083 116.846 M252.370 116.600 C 255.197 117.524,256.618 121.624,255.512 125.667 C 255.424 125.987,255.201 126.797,255.016 127.465 C 254.629 128.862,253.271 131.530,252.417 132.572 C 252.096 132.964,251.833 133.347,251.833 133.424 C 251.833 134.238,247.286 137.645,245.089 138.477 C 237.990 141.166,234.315 133.512,238.818 125.417 C 239.124 124.867,239.492 124.192,239.636 123.917 C 240.211 122.822,243.997 118.667,244.420 118.667 C 244.472 118.667,244.905 118.373,245.382 118.014 C 247.397 116.498,250.276 115.916,252.370 116.600 M304.547 116.793 C 309.483 118.965,308.208 128.972,302.242 134.889 C 300.912 136.208,298.389 138.036,297.650 138.215 C 297.430 138.269,296.800 138.480,296.250 138.685 C 294.037 139.509,291.381 138.934,290.219 137.378 C 289.961 137.033,289.656 136.651,289.542 136.530 C 289.427 136.409,289.289 136.109,289.234 135.863 C 289.178 135.618,289.054 135.117,288.958 134.750 C 288.482 132.942,288.965 129.020,289.922 126.917 C 290.173 126.367,290.464 125.692,290.570 125.417 C 291.524 122.946,297.175 117.167,298.638 117.167 C 298.754 117.167,299.080 117.048,299.360 116.903 C 300.848 116.133,302.947 116.089,304.547 116.793 M367.458 116.754 C 367.918 117.282,367.928 117.858,367.496 118.810 C 367.315 119.209,367.167 119.629,367.167 119.743 C 367.167 119.856,367.035 120.103,366.875 120.292 C 366.715 120.481,366.251 121.036,365.844 121.526 C 365.438 122.016,364.659 122.792,364.113 123.250 C 363.567 123.708,362.982 124.213,362.814 124.371 C 362.646 124.529,362.262 124.771,361.962 124.908 C 361.662 125.045,361.229 125.310,360.999 125.497 C 360.133 126.203,356.274 127.333,354.732 127.333 C 354.083 127.333,354.079 127.140,354.693 125.695 C 354.862 125.297,355.001 124.885,355.003 124.778 C 355.006 124.604,355.187 124.305,356.301 122.636 C 356.944 121.673,359.616 119.095,360.484 118.600 C 360.660 118.499,361.242 118.155,361.777 117.835 C 364.232 116.368,366.713 115.896,367.458 116.754 " stroke="none" fill="#344c5c" fill-rule="evenodd"></path><path id="path1" d="M190.157 5.491 C 189.203 5.781,187.833 6.819,187.833 7.252 C 187.833 7.474,189.030 7.985,191.750 8.924 C 194.748 9.959,195.731 10.311,197.833 11.100 C 199.819 11.845,201.002 12.142,200.997 11.894 C 200.938 9.342,200.149 8.257,197.842 7.559 C 197.058 7.322,196.342 7.070,196.250 6.999 C 195.927 6.748,191.443 5.334,191.016 5.348 C 190.778 5.356,190.391 5.420,190.157 5.491 M179.527 7.293 C 177.736 7.743,176.402 9.279,175.586 11.833 C 175.424 12.338,175.070 13.350,174.798 14.083 C 174.525 14.817,174.132 15.942,173.923 16.583 C 173.714 17.225,173.256 18.462,172.905 19.333 C 171.139 23.710,172.383 27.096,176.301 28.576 C 177.765 29.130,177.779 29.120,177.447 27.798 C 176.820 25.298,176.983 22.935,177.927 20.855 C 178.151 20.363,178.333 19.891,178.333 19.806 C 178.333 19.722,178.644 19.224,179.023 18.701 C 182.534 13.857,187.939 12.140,192.772 14.331 C 193.381 14.607,193.953 14.833,194.043 14.833 C 194.673 14.833,197.381 17.332,198.469 18.917 C 201.666 23.576,200.128 31.445,195.458 34.310 C 194.230 35.064,194.678 35.455,197.220 35.848 C 201.096 36.447,203.062 35.019,204.696 30.417 C 204.923 29.775,205.242 28.875,205.405 28.417 C 206.823 24.409,207.164 23.481,207.475 22.782 C 208.846 19.688,207.734 16.357,204.873 14.991 C 203.472 14.322,201.436 13.500,201.180 13.500 C 201.043 13.500,200.088 13.162,199.057 12.750 C 198.026 12.338,197.081 12.000,196.957 12.000 C 196.832 12.000,195.948 11.691,194.990 11.313 C 194.033 10.936,192.912 10.533,192.500 10.418 C 191.786 10.220,190.535 9.767,186.710 8.320 C 183.255 7.013,181.589 6.775,179.527 7.293 M187.167 14.991 C 186.003 15.128,184.956 15.495,183.962 16.113 C 183.620 16.326,183.297 16.500,183.243 16.500 C 182.724 16.500,179.833 19.766,179.833 20.352 C 179.833 20.514,179.764 20.690,179.680 20.742 C 178.766 21.307,178.424 26.143,179.155 28.167 C 179.893 30.209,180.364 30.987,181.672 32.320 C 185.582 36.307,192.070 36.355,196.077 32.427 C 200.211 28.375,200.346 22.191,196.394 18.001 C 194.088 15.556,190.975 14.541,187.167 14.991 M191.107 17.506 C 193.471 18.207,195.868 20.374,196.344 22.242 C 196.439 22.613,196.588 23.134,196.675 23.400 C 197.064 24.587,196.685 27.410,195.952 28.782 C 195.529 29.575,194.021 31.333,193.764 31.333 C 193.641 31.333,193.443 31.452,193.323 31.596 C 192.485 32.605,189.546 33.190,187.377 32.779 C 181.946 31.751,179.040 24.443,182.524 20.573 C 182.694 20.383,182.833 20.146,182.833 20.045 C 182.833 19.944,183.152 19.612,183.542 19.308 C 183.931 19.004,184.350 18.659,184.471 18.543 C 185.692 17.374,188.949 16.865,191.107 17.506 M204.958 18.254 C 205.846 19.276,205.070 20.833,203.672 20.833 C 202.480 20.833,201.799 19.653,202.275 18.412 C 202.582 17.611,204.311 17.509,204.958 18.254 M189.942 18.805 C 189.347 19.463,189.634 20.206,190.812 21.052 C 192.742 22.439,194.146 25.541,193.936 27.958 C 193.833 29.153,194.075 29.355,194.537 28.458 C 196.740 24.189,195.998 20.630,192.564 18.991 C 191.364 18.418,190.357 18.347,189.942 18.805 M181.842 24.625 C 181.146 27.130,183.084 30.575,185.589 31.287 C 186.700 31.603,186.826 31.524,186.216 30.890 C 184.467 29.072,182.500 25.544,182.500 24.222 C 182.500 23.732,182.006 24.034,181.842 24.625 M97.635 51.837 C 95.040 52.397,92.476 54.156,91.448 56.083 C 90.309 58.218,89.861 59.566,89.837 60.936 C 89.833 61.147,89.090 61.024,87.750 60.591 C 83.974 59.369,79.365 59.399,76.589 60.664 C 76.183 60.849,75.773 61.000,75.677 61.000 C 74.678 61.000,70.975 64.557,70.346 66.120 C 70.079 66.783,69.989 66.697,74.054 69.633 C 74.345 69.843,74.839 70.218,75.152 70.466 C 75.465 70.714,75.888 71.029,76.093 71.167 C 76.932 71.729,79.422 73.565,79.633 73.776 C 79.757 73.900,80.022 74.089,80.221 74.195 C 80.420 74.301,80.926 74.675,81.344 75.027 C 81.762 75.379,82.185 75.667,82.282 75.667 C 82.379 75.667,82.562 75.791,82.688 75.942 C 82.886 76.180,83.606 76.722,86.047 78.467 C 86.342 78.678,86.808 79.032,87.083 79.254 C 87.358 79.475,88.371 80.225,89.333 80.920 C 90.296 81.615,91.344 82.405,91.662 82.675 C 91.980 82.946,92.327 83.167,92.433 83.167 C 92.539 83.167,92.729 83.292,92.855 83.444 C 93.133 83.783,94.333 84.667,94.514 84.667 C 94.586 84.667,94.950 84.039,95.323 83.271 C 97.043 79.735,100.633 78.182,104.583 79.266 C 106.472 79.784,106.281 79.899,106.363 78.195 C 106.457 76.226,107.436 74.100,108.944 72.592 C 109.847 71.690,112.462 69.833,112.832 69.833 C 113.138 69.833,112.513 68.501,111.428 66.839 C 111.101 66.338,110.833 65.860,110.833 65.778 C 110.833 65.696,110.496 65.120,110.083 64.500 C 109.671 63.880,109.333 63.317,109.333 63.249 C 109.333 63.064,108.120 61.091,107.967 61.028 C 107.894 60.997,107.833 60.856,107.833 60.715 C 107.833 60.573,107.527 59.961,107.153 59.354 C 106.132 57.698,105.342 56.355,104.789 55.333 C 104.516 54.829,104.077 54.094,103.813 53.700 C 103.549 53.306,103.333 52.911,103.333 52.823 C 103.333 52.734,103.165 52.401,102.958 52.083 L 102.583 51.504 100.833 51.514 C 99.788 51.521,98.500 51.651,97.635 51.837 " stroke="none" fill="#fc1b3c" fill-rule="evenodd"></path><path id="path2" d="M118.000 17.817 C 117.618 17.947,115.646 19.076,113.583 20.345 C 113.125 20.627,112.375 21.079,111.917 21.350 C 111.458 21.620,110.446 22.223,109.667 22.689 C 108.888 23.155,107.987 23.685,107.667 23.868 C 107.346 24.050,106.696 24.454,106.222 24.766 C 105.748 25.078,105.287 25.333,105.197 25.333 C 104.913 25.333,104.043 26.448,103.834 27.080 C 103.582 27.845,103.736 28.714,104.279 29.583 C 104.508 29.950,105.027 30.813,105.432 31.500 C 105.837 32.188,106.239 32.862,106.326 33.000 C 106.412 33.137,106.875 33.925,107.354 34.750 C 107.834 35.575,108.503 36.700,108.841 37.250 C 109.472 38.277,110.389 39.832,110.835 40.632 C 110.974 40.880,111.385 41.571,111.749 42.167 C 112.112 42.762,112.531 43.475,112.678 43.750 C 113.010 44.367,113.944 45.925,114.767 47.233 C 115.108 47.774,115.569 48.560,115.791 48.979 C 116.014 49.398,116.354 49.961,116.546 50.231 C 116.738 50.501,117.050 51.009,117.239 51.361 C 121.018 58.377,121.586 58.633,126.536 55.542 C 127.160 55.152,127.727 54.833,127.796 54.833 C 127.865 54.833,128.295 54.585,128.752 54.281 C 129.209 53.977,130.071 53.449,130.667 53.108 C 131.262 52.767,132.425 52.081,133.250 51.584 C 134.075 51.087,135.080 50.508,135.483 50.298 C 135.887 50.088,136.589 49.567,137.044 49.140 L 137.871 48.364 137.808 47.115 C 137.753 46.013,137.675 45.763,137.146 44.975 C 136.817 44.485,136.270 43.596,135.931 43.000 C 135.592 42.404,135.066 41.504,134.762 41.000 C 133.260 38.505,132.459 37.154,131.897 36.167 C 131.559 35.571,131.106 34.845,130.891 34.553 C 130.676 34.261,130.431 33.841,130.347 33.619 C 130.262 33.396,129.909 32.772,129.563 32.232 C 128.937 31.257,128.711 30.877,127.750 29.179 C 127.475 28.693,126.982 27.873,126.654 27.356 C 126.327 26.839,125.744 25.892,125.360 25.250 C 124.976 24.608,124.594 23.971,124.511 23.833 C 124.429 23.696,123.774 22.581,123.056 21.355 C 120.987 17.825,120.002 17.135,118.000 17.817 M120.951 23.125 C 121.207 23.560,121.529 24.110,121.667 24.346 C 122.635 26.011,123.460 27.371,123.940 28.096 C 124.248 28.561,124.500 28.995,124.500 29.062 C 124.500 29.128,124.774 29.610,125.109 30.133 C 125.444 30.656,125.883 31.383,126.085 31.750 C 126.508 32.521,127.410 34.050,128.150 35.250 C 128.432 35.708,129.084 36.796,129.599 37.667 C 130.113 38.537,130.954 39.950,131.466 40.806 C 132.508 42.548,132.505 42.659,131.402 43.261 C 130.807 43.586,130.127 43.989,128.000 45.279 C 126.942 45.920,124.887 47.124,124.000 47.622 C 123.587 47.854,123.138 48.137,123.000 48.252 C 122.862 48.366,122.225 48.742,121.583 49.087 C 120.942 49.432,120.294 49.819,120.145 49.948 C 119.821 50.228,119.250 49.587,118.333 47.917 C 118.031 47.367,117.583 46.617,117.337 46.250 C 117.091 45.883,116.847 45.465,116.794 45.320 C 116.742 45.175,116.414 44.613,116.066 44.070 C 115.437 43.091,115.212 42.711,114.250 41.012 C 113.975 40.526,113.482 39.706,113.154 39.189 C 112.381 37.970,111.147 35.917,110.850 35.357 C 110.722 35.115,110.090 34.054,109.446 33.000 C 108.801 31.946,108.124 30.791,107.941 30.434 L 107.608 29.784 107.963 29.517 C 108.158 29.370,108.641 29.057,109.034 28.821 C 112.500 26.744,112.815 26.558,114.783 25.438 C 115.406 25.083,116.297 24.539,116.762 24.230 C 117.227 23.920,117.655 23.667,117.714 23.667 C 117.772 23.667,118.292 23.367,118.868 23.002 C 120.210 22.150,120.384 22.160,120.951 23.125 M230.000 35.241 C 229.771 35.366,228.459 36.694,227.085 38.192 C 225.710 39.691,224.363 41.142,224.091 41.417 C 223.819 41.692,222.815 42.779,221.860 43.833 C 220.904 44.887,219.853 45.985,219.524 46.271 L 218.925 46.793 218.171 46.449 C 217.756 46.260,216.742 45.788,215.917 45.400 C 213.078 44.067,211.578 43.370,209.500 42.418 C 208.354 41.893,206.861 41.190,206.182 40.856 C 202.811 39.201,200.518 41.471,202.301 44.699 C 203.126 46.195,204.269 48.258,205.284 50.083 C 205.742 50.908,206.511 52.296,206.992 53.167 C 207.472 54.038,207.927 54.825,208.002 54.917 C 208.077 55.008,208.400 55.579,208.721 56.184 L 209.305 57.284 208.871 57.767 C 207.486 59.307,204.855 62.155,204.422 62.583 C 204.144 62.858,203.242 63.821,202.417 64.723 C 201.592 65.625,200.475 66.822,199.934 67.384 C 198.316 69.064,197.954 70.116,198.577 71.322 C 199.382 72.877,200.399 72.986,204.852 71.996 C 206.511 71.627,208.437 71.246,209.132 71.149 C 209.827 71.053,211.541 70.717,212.941 70.403 C 216.193 69.675,216.240 69.676,216.668 70.458 C 216.856 70.802,217.218 71.458,217.471 71.917 C 217.725 72.375,218.209 73.256,218.547 73.874 C 219.224 75.112,220.555 77.468,221.020 78.250 C 221.183 78.525,221.583 79.260,221.908 79.883 C 222.233 80.506,222.687 81.292,222.916 81.630 C 223.146 81.968,223.333 82.325,223.333 82.423 C 223.333 83.213,224.866 84.333,225.948 84.333 C 227.841 84.333,228.266 83.599,228.768 79.458 C 230.419 65.837,230.247 66.831,230.954 66.837 C 231.389 66.841,233.970 66.337,242.500 64.583 C 246.840 63.691,247.167 63.486,247.167 61.661 C 247.167 59.763,247.348 59.881,237.667 55.464 C 237.254 55.276,235.829 54.616,234.500 53.998 L 232.084 52.873 232.139 51.728 C 232.169 51.099,232.525 48.108,232.930 45.083 C 234.020 36.936,233.968 36.000,232.386 35.187 C 231.889 34.932,230.509 34.963,230.000 35.241 M129.231 49.411 C 129.998 50.581,128.719 51.886,127.652 51.021 C 127.212 50.665,127.122 49.706,127.487 49.266 C 127.849 48.830,128.908 48.918,129.231 49.411 " stroke="none" fill="#73bd18" fill-rule="evenodd"></path><path id="path3" d="M159.333 0.116 C 159.012 0.150,157.512 0.447,156.000 0.774 C 154.487 1.102,152.768 1.438,152.179 1.522 C 151.590 1.605,149.715 1.967,148.012 2.325 C 146.310 2.684,144.542 3.027,144.083 3.087 C 143.427 3.174,139.369 4.037,137.045 4.584 C 135.932 4.846,135.925 6.335,137.012 11.500 C 137.273 12.737,137.597 14.350,137.734 15.083 C 138.050 16.786,139.361 23.502,140.010 26.750 C 140.901 31.204,140.970 31.556,141.344 33.583 C 142.102 37.681,142.474 37.817,148.899 36.348 C 150.539 35.973,152.065 35.667,152.289 35.667 C 152.514 35.667,154.097 35.361,155.807 34.987 C 157.517 34.614,159.380 34.247,159.946 34.172 C 162.546 33.827,167.577 32.605,167.956 32.225 C 168.570 31.612,168.481 30.572,167.318 24.750 C 167.044 23.375,166.705 21.650,166.565 20.917 C 166.426 20.183,165.978 17.933,165.570 15.917 C 165.162 13.900,164.832 12.137,164.836 12.000 C 164.839 11.862,164.508 10.137,164.098 8.167 C 163.689 6.196,163.239 3.919,163.100 3.107 C 162.586 0.119,162.196 -0.191,159.333 0.116 M160.221 4.180 C 160.345 4.991,161.081 8.770,162.264 14.667 C 163.167 19.166,163.320 19.952,163.479 20.917 C 163.570 21.467,163.879 23.004,164.167 24.333 C 164.455 25.662,164.759 27.238,164.844 27.833 C 164.929 28.429,165.036 29.081,165.083 29.281 C 165.159 29.608,165.086 29.656,164.376 29.744 C 163.940 29.797,162.346 30.098,160.833 30.412 C 159.321 30.726,157.596 31.068,157.000 31.171 C 156.404 31.275,154.454 31.651,152.667 32.007 C 150.879 32.363,148.377 32.850,147.107 33.089 C 145.837 33.329,144.708 33.559,144.598 33.601 C 144.410 33.673,144.028 32.080,143.736 30.000 C 143.678 29.587,143.338 27.946,142.982 26.351 C 142.625 24.757,142.333 23.269,142.333 23.044 C 142.333 22.819,142.028 21.236,141.654 19.526 C 141.281 17.816,140.908 15.913,140.826 15.298 C 140.745 14.683,140.375 12.807,140.005 11.128 C 139.246 7.678,139.217 7.388,139.625 7.275 C 139.990 7.175,144.551 6.256,149.583 5.270 C 155.147 4.180,158.679 3.470,159.250 3.327 C 160.002 3.140,160.072 3.201,160.221 4.180 M156.030 32.917 C 156.488 33.921,155.223 34.695,154.593 33.796 C 154.265 33.328,154.266 33.091,154.595 32.762 C 155.017 32.340,155.807 32.426,156.030 32.917 " stroke="none" fill="#01c075" fill-rule="evenodd"></path><path id="path4" d="M144.014 43.141 C 143.897 43.359,143.973 44.061,144.276 45.568 C 144.772 48.033,144.915 47.725,142.750 48.851 C 139.687 50.443,139.819 51.182,143.251 51.660 C 145.742 52.008,145.379 51.666,145.885 54.133 C 146.116 55.260,146.396 56.291,146.506 56.424 C 147.000 57.019,148.016 56.409,148.279 55.359 C 148.362 55.029,149.533 52.787,149.759 52.527 C 149.786 52.495,150.783 52.603,151.975 52.766 C 153.765 53.010,154.188 53.023,154.404 52.844 C 154.841 52.481,154.722 51.787,154.125 51.211 C 153.827 50.924,153.105 50.220,152.519 49.647 L 151.455 48.605 152.049 47.428 C 153.262 45.024,153.409 44.557,153.099 44.085 C 152.767 43.578,152.428 43.560,151.690 44.009 C 149.585 45.293,148.383 45.804,148.126 45.526 C 145.900 43.112,144.473 42.284,144.014 43.141 M115.867 81.200 C 115.580 81.487,115.616 82.005,116.074 84.163 C 116.298 85.215,116.466 86.077,116.449 86.079 C 116.431 86.082,115.892 86.369,115.250 86.717 C 114.608 87.066,113.727 87.507,113.292 87.698 C 112.523 88.034,112.500 88.065,112.500 88.765 C 112.500 89.587,112.223 89.473,115.325 89.924 C 117.415 90.228,117.086 89.861,117.625 92.490 C 117.970 94.170,118.151 94.736,118.388 94.862 C 118.893 95.133,119.438 94.890,119.664 94.294 C 119.778 93.995,120.092 93.337,120.363 92.833 C 120.634 92.329,120.981 91.630,121.136 91.280 C 121.399 90.683,121.452 90.650,122.000 90.735 C 127.101 91.532,127.604 91.105,124.733 88.410 L 123.129 86.904 123.710 85.744 C 124.596 83.977,125.000 83.021,125.000 82.696 C 125.000 81.950,124.107 81.784,123.169 82.355 C 122.850 82.550,122.031 82.996,121.349 83.347 L 120.110 83.985 119.513 83.462 C 119.185 83.175,118.479 82.503,117.945 81.970 C 116.951 80.978,116.322 80.745,115.867 81.200 " stroke="none" fill="#ffcc3e" fill-rule="evenodd"></path></g></svg>