<svg id="svg" version="1.1" xmlns="http://www.w3.org/2000/svg" xmlns:xlink="http://www.w3.org/1999/xlink" width="400" height="172.9608938547486" viewBox="0, 0, 400,172.9608938547486"><g id="svgg"><path id="path0" d="M118.091 19.283 C 117.613 19.412,108.338 24.857,105.395 26.737 C 102.679 28.471,102.548 28.037,109.083 39.000 C 110.258 40.971,111.796 43.561,112.501 44.756 C 113.206 45.951,114.231 47.676,114.778 48.589 C 115.325 49.503,116.649 51.725,117.719 53.528 C 119.976 57.330,120.260 57.701,121.190 58.073 C 122.344 58.535,121.892 58.751,130.583 53.587 C 131.683 52.934,133.397 51.917,134.391 51.328 C 138.175 49.085,138.347 49.721,130.414 36.583 C 130.027 35.942,129.113 34.404,128.383 33.167 C 119.945 18.863,119.895 18.797,118.091 19.283 M122.344 27.042 C 123.552 29.081,124.748 31.087,125.001 31.500 C 125.825 32.844,131.782 42.906,131.990 43.305 C 132.316 43.931,132.199 44.028,128.304 46.342 C 126.257 47.558,123.579 49.152,122.352 49.883 C 118.800 52.000,119.262 52.100,117.282 48.783 C 114.783 44.597,113.316 42.133,112.002 39.917 C 111.296 38.725,109.882 36.343,108.859 34.623 C 106.437 30.549,106.311 31.079,110.250 28.761 C 111.533 28.006,114.121 26.476,116.000 25.361 C 117.879 24.246,119.581 23.334,119.781 23.334 C 120.079 23.333,120.545 24.007,122.344 27.042 M228.854 36.875 C 228.563 37.081,227.040 38.637,225.469 40.333 C 223.898 42.029,221.706 44.383,220.598 45.564 C 219.490 46.745,218.485 47.852,218.366 48.022 C 218.052 48.469,218.015 48.459,215.083 47.095 C 213.617 46.413,210.489 44.957,208.133 43.859 C 202.686 41.321,202.083 41.247,201.143 43.002 C 200.535 44.134,200.326 43.693,207.540 56.500 L 208.620 58.417 208.029 59.083 C 207.705 59.450,205.592 61.737,203.334 64.167 C 197.671 70.259,197.832 70.073,197.649 70.738 C 197.389 71.680,197.935 72.749,198.891 73.173 L 199.629 73.499 201.856 73.082 C 203.081 72.854,204.983 72.483,206.083 72.258 C 212.536 70.942,215.198 70.465,215.329 70.600 C 215.452 70.728,217.012 73.500,221.040 80.750 C 222.914 84.123,223.135 84.447,223.767 84.747 C 224.755 85.216,225.979 84.862,226.589 83.931 C 226.838 83.551,227.261 80.477,228.335 71.250 C 228.538 69.508,228.789 68.003,228.894 67.904 C 228.998 67.806,230.546 67.443,232.333 67.098 C 245.270 64.603,244.849 64.717,245.355 63.573 C 246.098 61.893,245.549 61.209,242.231 59.677 C 240.775 59.005,237.933 57.687,235.917 56.747 C 233.900 55.808,231.856 54.872,231.375 54.666 C 230.651 54.357,230.500 54.220,230.500 53.873 C 230.500 53.335,231.043 48.656,231.679 43.718 C 232.286 39.005,232.321 38.177,231.937 37.590 C 231.240 36.527,229.812 36.196,228.854 36.875 M128.640 50.100 C 129.540 50.730,129.424 52.173,128.440 52.584 C 126.751 53.290,125.532 51.163,126.986 50.047 C 127.360 49.759,128.192 49.786,128.640 50.100 " stroke="none" fill="#97bd0a" fill-rule="evenodd"></path><path id="path1" d="M188.667 7.491 C 188.073 7.807,187.219 8.610,187.347 8.733 C 187.417 8.802,190.178 9.806,194.250 11.244 C 196.047 11.879,197.348 12.349,199.477 13.133 C 199.658 13.200,199.681 13.066,199.591 12.483 C 199.243 10.246,199.061 10.104,194.473 8.484 C 190.461 7.069,189.705 6.939,188.667 7.491 M179.401 8.830 C 176.418 9.458,175.837 10.477,172.131 21.583 C 170.861 25.390,171.699 27.741,174.896 29.338 C 176.266 30.023,176.396 30.002,176.223 29.125 C 173.798 16.825,188.431 9.467,196.727 18.816 C 201.056 23.695,200.001 32.187,194.599 35.947 L 194.114 36.284 194.913 36.556 C 199.000 37.949,201.574 36.412,203.342 31.524 C 203.828 30.182,204.668 27.883,205.209 26.417 C 206.839 21.998,207.002 20.805,206.197 19.226 C 205.116 17.108,204.426 16.732,196.417 13.911 C 194.767 13.330,191.392 12.129,188.917 11.243 C 181.714 8.664,181.022 8.489,179.401 8.830 M185.667 16.763 C 178.155 18.735,175.575 27.896,180.998 33.339 C 187.232 39.596,197.833 35.204,197.833 26.364 C 197.833 20.042,191.678 15.184,185.667 16.763 M189.583 18.418 C 196.048 19.782,198.358 27.535,193.680 32.170 C 190.516 35.304,185.457 35.341,182.303 32.252 C 176.533 26.603,181.714 16.759,189.583 18.418 M203.790 19.094 C 205.160 19.992,204.400 22.500,202.758 22.500 C 201.862 22.500,201.248 22.112,200.945 21.355 C 200.220 19.543,202.143 18.015,203.790 19.094 M189.200 20.367 C 188.745 20.821,188.983 21.315,190.068 22.167 C 192.023 23.703,193.905 27.901,193.234 29.227 C 193.181 29.331,193.290 29.229,193.476 29.000 C 194.491 27.750,194.755 24.573,193.969 23.083 C 192.957 21.167,190.054 19.513,189.200 20.367 M181.199 27.250 C 181.316 29.304,182.489 31.216,184.163 32.081 C 184.935 32.481,184.940 32.310,184.179 31.431 C 183.335 30.456,182.270 28.641,181.803 27.383 C 181.269 25.946,181.123 25.913,181.199 27.250 M98.472 53.004 C 93.624 53.822,90.501 57.030,89.744 61.970 C 89.654 62.555,89.582 62.668,89.358 62.572 C 82.214 59.520,74.554 61.183,70.896 66.581 C 70.174 67.647,70.126 67.512,71.625 68.615 C 72.335 69.138,73.929 70.314,75.167 71.229 C 76.404 72.143,78.129 73.417,79.000 74.060 C 79.871 74.703,81.408 75.839,82.417 76.585 C 95.518 86.274,94.207 85.411,94.473 84.523 C 95.577 80.841,100.245 78.794,104.708 80.035 L 105.667 80.302 105.667 79.507 C 105.667 76.350,107.523 73.407,110.776 71.406 L 112.135 70.570 111.431 69.327 C 111.044 68.643,109.838 66.546,108.750 64.667 C 106.714 61.147,102.644 54.103,102.179 53.293 C 101.894 52.796,100.396 52.679,98.472 53.004 " stroke="none" fill="#fc053c" fill-rule="evenodd"></path><path id="path2" d="M150.250 3.514 C 145.208 4.514,140.483 5.444,139.750 5.582 C 135.365 6.405,135.348 6.428,136.165 10.417 C 136.447 11.792,137.688 18.092,138.924 24.417 C 141.631 38.274,141.429 37.375,141.943 37.858 C 142.541 38.420,142.902 38.380,150.083 36.953 C 153.567 36.260,158.592 35.266,161.250 34.743 C 166.245 33.761,166.858 33.578,167.182 32.972 C 167.460 32.453,167.400 32.097,164.908 19.417 C 163.666 13.092,162.461 6.904,162.230 5.667 C 161.342 0.891,162.466 1.093,150.250 3.514 M159.554 4.875 C 159.603 5.081,160.253 8.362,160.997 12.167 C 162.939 22.101,163.803 26.478,164.263 28.711 C 164.792 31.280,164.839 31.088,163.625 31.295 C 163.052 31.392,158.319 32.307,153.107 33.329 C 147.894 34.350,143.609 35.162,143.585 35.134 C 143.495 35.033,142.966 32.527,142.413 29.583 C 142.102 27.933,141.054 22.543,140.084 17.604 C 139.113 12.666,138.349 8.595,138.386 8.559 C 138.474 8.471,140.602 8.031,146.333 6.919 C 148.946 6.411,152.733 5.666,154.750 5.263 C 159.131 4.387,159.431 4.362,159.554 4.875 M155.053 33.525 C 156.105 34.079,155.779 35.667,154.612 35.667 C 153.412 35.667,153.031 34.129,154.083 33.532 C 154.508 33.292,154.608 33.291,155.053 33.525 " stroke="none" fill="#06c475" fill-rule="evenodd"></path><path id="path3" d="M159.000 1.445 C 158.679 1.476,156.954 1.796,155.167 2.154 C 153.379 2.513,151.317 2.921,150.583 3.063 C 147.607 3.636,143.768 4.402,141.250 4.926 C 139.783 5.232,138.099 5.559,137.507 5.654 C 135.411 5.989,135.037 6.902,135.736 9.981 C 135.973 11.024,136.165 12.037,136.162 12.231 C 136.159 12.425,136.491 14.196,136.898 16.167 C 137.306 18.137,137.791 20.537,137.977 21.500 C 138.732 25.403,139.063 27.078,139.753 30.500 C 140.151 32.471,140.601 34.812,140.755 35.703 C 141.275 38.727,141.837 39.036,145.353 38.233 C 146.396 37.995,147.720 37.740,148.295 37.666 C 148.869 37.592,150.782 37.230,152.545 36.861 C 155.462 36.251,157.902 35.766,161.583 35.065 C 168.655 33.720,168.319 34.368,166.497 25.583 C 166.231 24.300,165.931 22.762,165.829 22.167 C 165.727 21.571,165.428 20.033,165.163 18.750 C 164.899 17.467,164.561 15.742,164.412 14.917 C 164.263 14.092,163.886 12.217,163.574 10.750 C 163.262 9.283,162.928 7.521,162.832 6.833 C 162.230 2.517,161.505 1.196,159.833 1.362 C 159.696 1.376,159.321 1.413,159.000 1.445 M160.748 1.833 C 161.368 2.068,161.740 3.032,162.230 5.667 C 162.461 6.904,163.666 13.092,164.908 19.417 C 167.400 32.097,167.460 32.453,167.182 32.972 C 166.858 33.578,166.245 33.761,161.250 34.743 C 158.592 35.266,153.567 36.260,150.083 36.953 C 142.902 38.380,142.541 38.420,141.943 37.858 C 141.429 37.375,141.631 38.274,138.924 24.417 C 137.688 18.092,136.447 11.792,136.165 10.417 C 135.348 6.428,135.365 6.405,139.750 5.582 C 140.483 5.444,145.208 4.514,150.250 3.514 C 159.944 1.593,160.066 1.573,160.748 1.833 M154.750 5.263 C 152.733 5.666,148.946 6.411,146.333 6.919 C 140.602 8.031,138.474 8.471,138.386 8.559 C 138.349 8.595,139.113 12.666,140.084 17.604 C 141.054 22.543,142.102 27.933,142.413 29.583 C 142.966 32.527,143.495 35.033,143.585 35.134 C 143.609 35.162,147.894 34.350,153.107 33.329 C 158.319 32.307,163.052 31.392,163.625 31.295 C 164.839 31.088,164.792 31.280,164.263 28.711 C 163.803 26.478,162.939 22.101,160.997 12.167 C 160.253 8.362,159.603 5.081,159.554 4.875 C 159.431 4.362,159.131 4.387,154.750 5.263 M159.471 6.292 C 159.655 7.094,159.891 8.237,159.995 8.833 C 160.100 9.429,160.456 11.229,160.788 12.833 C 161.120 14.438,161.445 16.200,161.511 16.750 C 161.576 17.300,161.900 18.944,162.231 20.403 C 162.562 21.862,162.833 23.238,162.833 23.461 C 162.833 23.685,163.171 25.402,163.583 27.277 C 163.996 29.153,164.333 30.712,164.333 30.743 C 164.333 30.773,164.052 30.830,163.708 30.868 C 163.365 30.906,161.771 31.210,160.167 31.542 C 158.563 31.875,156.650 32.261,155.917 32.400 C 153.179 32.919,149.992 33.557,147.008 34.183 C 145.000 34.604,143.896 34.768,143.827 34.656 C 143.768 34.561,143.591 33.756,143.434 32.867 C 143.276 31.978,142.857 29.787,142.504 28.000 C 141.889 24.895,141.682 23.836,140.728 18.917 C 140.497 17.725,140.019 15.362,139.666 13.667 C 139.312 11.971,138.977 10.165,138.920 9.653 L 138.816 8.723 140.033 8.523 C 140.702 8.412,142.487 8.063,144.000 7.747 C 145.512 7.431,147.275 7.098,147.917 7.006 C 148.558 6.915,150.433 6.540,152.083 6.172 C 153.733 5.805,155.308 5.501,155.583 5.497 C 155.858 5.493,156.683 5.349,157.417 5.177 C 158.150 5.004,158.837 4.857,158.943 4.848 C 159.054 4.840,159.280 5.460,159.471 6.292 M188.797 6.968 C 188.108 7.143,186.833 8.283,186.833 8.723 C 186.833 9.038,187.019 9.156,188.042 9.489 C 188.706 9.705,189.813 10.094,190.500 10.352 C 191.188 10.610,192.500 11.081,193.417 11.398 C 196.027 12.301,196.646 12.521,198.250 13.113 C 199.777 13.677,200.167 13.765,200.166 13.542 C 200.166 13.046,199.669 10.986,199.447 10.558 C 199.066 9.822,196.616 8.500,195.636 8.500 C 195.467 8.500,195.199 8.425,195.039 8.332 C 193.347 7.351,190.086 6.638,188.797 6.968 M194.250 8.371 C 198.166 9.747,198.681 10.004,199.136 10.815 C 199.454 11.381,199.822 13.167,199.620 13.167 C 199.571 13.167,197.030 12.277,193.973 11.190 C 190.917 10.103,188.136 9.122,187.793 9.011 C 187.037 8.765,187.120 8.475,188.153 7.759 C 189.562 6.783,189.802 6.807,194.250 8.371 M177.917 8.824 C 176.386 9.514,174.149 12.964,174.165 14.609 C 174.166 14.714,173.829 15.640,173.417 16.667 C 173.004 17.693,172.667 18.636,172.667 18.763 C 172.667 18.890,172.354 19.763,171.972 20.705 C 170.070 25.393,171.595 28.849,176.220 30.330 C 177.046 30.594,177.032 30.636,176.661 28.996 C 175.815 25.255,176.742 21.464,179.118 18.950 C 182.280 15.605,185.731 14.425,189.982 15.235 C 193.103 15.830,196.922 18.756,197.944 21.333 C 198.071 21.654,198.246 22.043,198.333 22.198 C 199.817 24.851,199.193 29.656,196.950 32.849 C 196.243 33.854,195.725 34.392,194.189 35.719 C 193.470 36.339,193.559 36.488,194.917 36.946 C 197.455 37.802,200.608 37.159,201.824 35.536 C 202.010 35.287,202.237 34.995,202.327 34.886 C 202.585 34.578,203.422 32.685,203.787 31.583 C 204.381 29.794,205.361 27.069,206.575 23.833 C 207.986 20.070,205.921 16.496,201.699 15.396 C 201.188 15.263,200.690 15.089,200.593 15.010 C 200.496 14.930,199.592 14.592,198.583 14.259 C 197.575 13.925,196.525 13.552,196.250 13.431 C 195.754 13.210,195.093 12.980,193.333 12.413 C 192.829 12.250,192.342 12.064,192.250 11.999 C 192.158 11.934,191.558 11.708,190.917 11.496 C 190.275 11.285,188.984 10.824,188.047 10.473 C 187.111 10.121,186.248 9.833,186.130 9.833 C 186.013 9.833,185.185 9.533,184.291 9.167 C 182.349 8.371,179.287 8.206,177.917 8.824 M183.930 9.421 C 184.839 9.752,186.746 10.437,188.167 10.942 C 189.588 11.448,192.213 12.388,194.000 13.032 C 195.787 13.676,197.550 14.298,197.917 14.415 C 206.632 17.188,207.967 19.097,205.610 25.417 C 205.098 26.792,204.221 29.192,203.662 30.750 C 202.263 34.654,201.649 35.571,199.799 36.519 C 198.539 37.165,195.882 37.115,194.519 36.420 L 194.122 36.217 194.519 35.942 C 200.539 31.775,201.094 22.809,195.644 17.764 C 187.305 10.043,173.893 17.661,176.225 28.792 C 176.487 30.042,176.479 30.054,175.606 29.712 C 172.775 28.604,171.336 26.542,171.541 23.886 C 171.627 22.782,174.798 13.409,175.705 11.583 C 177.087 8.797,180.066 8.014,183.930 9.421 M186.083 16.273 C 184.378 16.728,183.355 17.125,182.662 17.602 C 182.211 17.913,181.783 18.168,181.712 18.170 C 181.554 18.174,179.667 20.074,179.667 20.230 C 179.667 20.291,179.419 20.701,179.116 21.141 C 177.885 22.932,177.377 26.763,178.065 29.083 C 178.420 30.282,179.179 32.000,179.353 32.000 C 179.421 32.000,179.529 32.162,179.592 32.360 C 179.731 32.797,181.311 34.392,182.050 34.839 C 184.749 36.476,187.263 36.969,190.085 36.415 C 191.419 36.153,192.084 35.886,193.957 34.858 C 198.189 32.534,199.458 25.441,196.513 20.565 C 195.674 19.176,193.125 17.169,191.766 16.827 C 191.391 16.733,190.896 16.573,190.667 16.473 C 190.223 16.280,186.644 16.123,186.083 16.273 M190.378 16.762 C 198.080 18.757,200.485 28.445,194.601 33.770 C 189.023 38.818,180.216 36.018,178.334 28.598 C 176.555 21.580,183.319 14.932,190.378 16.762 M185.950 18.516 C 181.821 19.487,179.028 24.129,180.088 28.257 C 182.266 36.739,194.196 36.483,195.943 27.918 C 197.113 22.178,191.766 17.147,185.950 18.516 M190.083 18.950 C 190.542 19.092,190.988 19.273,191.075 19.354 C 191.162 19.434,191.368 19.500,191.533 19.500 C 191.698 19.500,192.114 19.752,192.458 20.059 C 192.802 20.367,193.252 20.707,193.458 20.815 C 193.665 20.923,193.833 21.089,193.833 21.183 C 193.833 21.276,194.098 21.700,194.421 22.123 C 196.619 25.002,195.798 30.553,192.909 32.338 C 192.593 32.534,192.333 32.754,192.333 32.826 C 192.333 33.220,189.271 34.167,187.999 34.167 C 182.389 34.167,178.872 28.737,180.903 23.212 C 181.292 22.154,183.432 19.811,184.231 19.568 C 184.425 19.509,184.898 19.319,185.283 19.147 C 186.730 18.498,188.396 18.430,190.083 18.950 M117.055 19.320 C 116.489 19.588,115.628 20.075,115.140 20.403 C 114.653 20.732,114.194 21.000,114.119 21.000 C 114.045 21.000,113.542 21.294,113.002 21.652 C 112.462 22.011,111.866 22.354,111.677 22.413 C 111.489 22.473,111.236 22.621,111.115 22.742 C 110.994 22.863,110.450 23.210,109.906 23.512 C 109.362 23.814,108.617 24.259,108.250 24.501 C 107.537 24.971,105.652 26.067,104.751 26.534 C 103.343 27.265,102.945 29.340,103.889 31.029 C 105.459 33.841,105.903 34.607,106.095 34.833 C 106.211 34.971,106.622 35.642,107.008 36.326 C 107.395 37.009,107.814 37.671,107.939 37.796 C 108.064 37.921,108.167 38.098,108.167 38.189 C 108.167 38.344,109.542 40.735,110.166 41.667 C 110.320 41.896,110.692 42.533,110.994 43.083 C 111.295 43.633,111.720 44.322,111.938 44.614 C 112.155 44.906,112.333 45.206,112.334 45.281 C 112.334 45.355,112.671 45.930,113.084 46.557 C 113.496 47.184,113.833 47.777,113.833 47.875 C 113.833 47.972,114.010 48.284,114.225 48.568 C 114.441 48.851,114.903 49.608,115.253 50.250 C 115.603 50.892,115.936 51.454,115.995 51.500 C 116.053 51.546,116.349 52.033,116.653 52.583 C 116.956 53.133,117.384 53.822,117.602 54.114 C 117.821 54.406,118.005 54.743,118.011 54.864 C 118.029 55.222,119.879 57.860,120.364 58.218 C 121.100 58.762,122.884 58.686,123.895 58.066 C 124.997 57.391,125.945 56.833,126.982 56.250 C 127.471 55.975,128.294 55.482,128.811 55.154 C 129.964 54.423,132.190 53.106,132.417 53.021 C 132.508 52.986,133.071 52.649,133.667 52.271 C 134.262 51.893,135.012 51.450,135.333 51.288 C 136.637 50.627,137.500 49.415,137.497 48.250 C 137.496 47.756,136.724 46.257,135.376 44.130 C 134.986 43.515,134.667 42.945,134.667 42.865 C 134.667 42.784,134.377 42.276,134.024 41.734 C 133.244 40.541,132.531 39.361,132.083 38.523 C 131.900 38.180,131.491 37.490,131.175 36.991 C 130.859 36.492,130.484 35.882,130.342 35.635 C 129.022 33.348,128.700 32.810,128.219 32.086 C 127.915 31.628,127.667 31.194,127.667 31.119 C 127.667 31.045,127.373 30.542,127.014 30.002 C 126.656 29.462,126.313 28.866,126.253 28.677 C 126.194 28.489,126.051 28.241,125.937 28.126 C 125.822 28.011,125.437 27.392,125.080 26.750 C 124.724 26.108,124.223 25.291,123.966 24.933 C 123.710 24.576,123.500 24.216,123.500 24.134 C 123.500 24.051,123.206 23.542,122.848 23.002 C 122.489 22.462,122.146 21.866,122.087 21.677 C 122.027 21.489,121.889 21.241,121.780 21.126 C 121.672 21.011,121.382 20.607,121.136 20.229 C 120.237 18.846,118.755 18.516,117.055 19.320 M201.625 19.013 C 200.787 19.501,200.590 21.018,201.260 21.815 C 202.672 23.493,205.190 21.755,204.242 19.757 C 203.847 18.925,202.455 18.530,201.625 19.013 M119.633 19.402 C 120.566 19.889,121.069 20.672,128.002 32.422 C 128.706 33.617,129.732 35.342,130.282 36.256 C 130.831 37.169,132.279 39.604,133.499 41.667 C 134.719 43.729,136.006 45.899,136.359 46.489 C 137.640 48.634,137.237 49.641,134.413 51.348 C 122.313 58.660,122.242 58.695,120.836 57.969 C 120.004 57.540,120.248 57.916,114.417 48.083 C 112.786 45.333,109.935 40.533,108.081 37.417 C 103.527 29.759,103.667 30.020,103.667 29.153 C 103.669 27.658,103.688 27.642,110.417 23.633 C 118.378 18.888,118.523 18.822,119.633 19.402 M203.548 19.502 C 204.163 19.986,204.275 20.703,203.843 21.401 C 203.269 22.330,202.486 22.432,201.684 21.683 C 200.297 20.387,202.056 18.328,203.548 19.502 M188.968 19.958 C 188.332 20.699,188.571 21.707,189.523 22.297 C 191.597 23.583,192.978 26.581,192.786 29.381 C 192.690 30.786,192.920 31.071,193.419 30.167 C 195.513 26.372,195.454 23.663,193.229 21.438 C 192.419 20.627,192.188 20.472,191.186 20.059 C 190.061 19.597,189.308 19.562,188.968 19.958 M191.458 20.594 C 194.456 22.088,195.367 25.601,193.614 28.912 L 193.258 29.583 193.154 28.246 C 192.962 25.758,192.134 24.093,190.247 22.397 C 188.145 20.509,188.933 19.335,191.458 20.594 M118.500 23.914 C 117.996 24.227,115.371 25.794,112.667 27.396 C 107.017 30.743,107.000 30.754,107.001 31.133 C 107.001 31.289,107.760 32.692,108.688 34.250 C 109.615 35.808,111.354 38.733,112.551 40.750 C 117.834 49.648,118.932 51.415,119.213 51.469 C 119.373 51.500,120.947 50.666,122.710 49.615 C 124.474 48.564,127.266 46.903,128.914 45.923 C 130.563 44.944,131.963 44.061,132.024 43.961 C 132.187 43.697,132.100 43.523,130.246 40.417 C 128.760 37.927,124.800 31.264,121.530 25.750 C 119.877 22.963,119.955 23.010,118.500 23.914 M120.587 24.918 C 120.956 25.559,121.463 26.401,121.712 26.788 C 121.962 27.176,122.167 27.541,122.167 27.599 C 122.167 27.658,122.504 28.213,122.917 28.833 C 123.329 29.454,123.668 30.026,123.670 30.106 C 123.673 30.247,124.493 31.551,124.830 31.951 C 124.924 32.062,125.000 32.220,125.000 32.303 C 125.000 32.386,125.185 32.726,125.412 33.060 C 125.638 33.394,126.061 34.098,126.351 34.625 C 126.641 35.152,127.094 35.879,127.356 36.241 C 127.619 36.603,127.833 36.971,127.833 37.060 C 127.833 37.261,128.864 38.897,129.039 38.972 C 129.109 39.003,129.167 39.118,129.167 39.228 C 129.167 39.338,129.434 39.838,129.762 40.339 C 130.089 40.840,130.577 41.662,130.846 42.167 C 131.116 42.671,131.429 43.219,131.543 43.385 C 131.719 43.643,131.688 43.735,131.333 44.010 C 131.104 44.188,130.826 44.408,130.715 44.500 C 130.605 44.592,130.431 44.667,130.329 44.667 C 130.227 44.667,129.830 44.881,129.447 45.143 C 129.064 45.405,128.487 45.752,128.167 45.913 C 127.846 46.075,127.171 46.484,126.667 46.823 C 126.162 47.161,125.619 47.487,125.459 47.547 C 125.299 47.607,124.753 47.921,124.247 48.245 C 123.741 48.568,123.265 48.833,123.188 48.833 C 123.112 48.833,122.755 49.047,122.394 49.308 C 122.034 49.569,121.291 50.029,120.744 50.330 C 120.197 50.631,119.654 50.953,119.538 51.046 C 119.421 51.138,119.302 51.185,119.273 51.149 C 119.017 50.829,118.122 49.391,117.675 48.583 C 117.370 48.033,117.060 47.543,116.984 47.494 C 116.908 47.445,116.728 47.145,116.584 46.827 C 116.439 46.510,116.101 45.913,115.833 45.500 C 115.565 45.087,115.228 44.490,115.083 44.173 C 114.939 43.855,114.717 43.480,114.591 43.339 C 114.464 43.199,114.045 42.524,113.658 41.841 C 113.272 41.157,112.858 40.501,112.739 40.382 C 112.619 40.262,112.470 40.002,112.407 39.804 C 112.344 39.605,112.021 39.025,111.688 38.513 C 111.355 38.002,110.933 37.317,110.750 36.992 C 110.567 36.666,110.192 36.001,109.917 35.513 C 109.642 35.025,109.191 34.279,108.914 33.855 C 107.409 31.543,107.120 30.667,107.862 30.667 C 107.947 30.667,108.444 30.391,108.966 30.053 C 109.489 29.716,110.254 29.259,110.667 29.038 C 111.079 28.817,111.655 28.456,111.947 28.235 C 112.239 28.014,112.569 27.833,112.681 27.833 C 112.794 27.833,113.117 27.658,113.401 27.443 C 113.685 27.228,114.276 26.853,114.715 26.609 C 116.397 25.675,119.162 23.976,119.261 23.816 C 119.495 23.437,119.954 23.818,120.587 24.918 M181.027 25.591 C 179.844 28.186,182.317 32.346,185.383 32.921 C 186.229 33.080,186.169 32.911,184.917 31.602 C 184.321 30.979,183.833 30.390,183.833 30.292 C 183.833 30.195,183.638 29.858,183.398 29.545 C 182.965 28.977,181.819 26.463,181.606 25.613 C 181.465 25.053,181.275 25.045,181.027 25.591 M181.732 27.091 C 182.079 28.162,183.322 30.349,184.140 31.328 C 185.129 32.511,185.116 32.581,184.016 31.995 C 182.164 31.008,180.789 28.473,181.096 26.609 C 181.221 25.849,181.364 25.957,181.732 27.091 M154.083 33.532 C 153.031 34.129,153.412 35.667,154.612 35.667 C 155.779 35.667,156.105 34.079,155.053 33.525 C 154.608 33.291,154.508 33.292,154.083 33.532 M154.963 33.926 C 155.465 34.278,155.452 34.953,154.938 35.187 C 154.090 35.573,153.476 34.671,154.109 33.971 C 154.444 33.601,154.495 33.598,154.963 33.926 M228.795 36.383 C 228.545 36.493,227.128 37.896,225.646 39.500 C 224.164 41.104,222.085 43.340,221.026 44.468 C 219.968 45.596,219.002 46.660,218.881 46.833 C 218.474 47.415,217.707 47.858,217.382 47.699 C 215.235 46.646,213.851 46.000,213.743 46.000 C 213.669 46.000,213.003 45.705,212.263 45.345 C 211.522 44.985,210.279 44.395,209.500 44.034 C 208.721 43.674,207.371 43.036,206.500 42.618 C 203.881 41.359,203.300 41.219,202.224 41.585 C 200.196 42.274,199.962 44.003,201.539 46.628 C 201.884 47.202,202.167 47.727,202.167 47.795 C 202.168 47.862,202.336 48.179,202.542 48.500 C 203.003 49.218,204.078 51.142,205.009 52.917 C 205.394 53.650,205.764 54.288,205.832 54.333 C 205.900 54.379,206.151 54.832,206.389 55.339 C 206.628 55.846,207.042 56.596,207.309 57.006 C 208.256 58.455,208.434 58.104,204.822 61.917 C 204.301 62.467,203.434 63.407,202.896 64.007 C 202.357 64.607,201.354 65.687,200.667 66.409 C 197.192 70.056,197.250 69.975,197.250 71.160 C 197.250 73.838,198.558 74.256,203.521 73.167 C 205.190 72.800,206.732 72.500,206.946 72.500 C 207.160 72.500,208.666 72.208,210.293 71.852 C 211.919 71.496,213.662 71.161,214.167 71.108 L 215.083 71.013 215.625 71.859 C 215.923 72.324,216.167 72.799,216.167 72.913 C 216.167 73.028,216.310 73.304,216.484 73.526 C 216.659 73.748,217.116 74.527,217.500 75.257 C 217.883 75.986,218.560 77.221,219.003 78.000 C 219.863 79.511,220.801 81.201,221.816 83.067 C 223.483 86.128,227.344 86.058,227.331 82.967 C 227.330 82.664,227.667 79.792,228.081 76.583 C 228.496 73.375,228.877 70.178,228.929 69.478 L 229.025 68.207 230.054 67.997 C 230.620 67.882,231.908 67.603,232.917 67.377 C 233.925 67.151,235.200 66.905,235.750 66.830 C 236.300 66.754,237.838 66.456,239.167 66.167 C 240.496 65.877,242.143 65.567,242.827 65.478 C 245.011 65.192,245.905 64.376,245.909 62.665 C 245.913 61.107,245.611 60.787,243.000 59.582 C 241.762 59.010,240.112 58.239,239.333 57.869 C 237.584 57.037,235.942 56.278,233.667 55.247 C 230.695 53.900,230.801 53.967,230.889 53.500 C 230.931 53.271,231.092 51.958,231.244 50.583 C 231.397 49.208,231.780 46.055,232.095 43.575 C 232.806 37.968,232.806 38.042,232.122 37.145 C 231.402 36.201,229.956 35.870,228.795 36.383 M231.263 36.814 C 232.585 37.621,232.625 36.508,230.721 51.975 C 230.422 54.399,230.170 54.044,233.167 55.424 C 241.974 59.481,244.628 60.747,244.961 61.052 C 245.528 61.569,245.763 62.520,245.523 63.321 C 245.129 64.638,245.162 64.627,236.654 66.305 C 232.411 67.142,228.896 67.899,228.842 67.986 C 228.788 68.074,228.568 69.669,228.354 71.531 C 226.940 83.836,226.867 84.209,225.757 84.736 C 224.399 85.380,223.262 84.859,222.320 83.160 C 221.992 82.568,221.121 80.996,220.385 79.667 C 218.349 75.987,215.334 70.612,215.274 70.552 C 215.244 70.522,211.814 71.173,207.652 71.998 C 198.622 73.788,198.795 73.780,197.918 72.442 C 196.965 70.988,197.082 70.806,203.118 64.318 C 206.032 61.187,208.437 58.572,208.462 58.508 C 208.488 58.444,207.071 55.810,205.315 52.654 C 203.559 49.499,201.834 46.392,201.480 45.750 C 200.498 43.966,200.729 42.695,202.170 41.950 C 203.135 41.452,203.087 41.433,213.912 46.491 L 217.908 48.358 218.914 47.304 C 219.467 46.724,221.856 44.169,224.223 41.625 C 229.472 35.984,229.675 35.845,231.263 36.814 M143.429 44.095 C 143.088 44.435,143.098 44.797,143.500 46.750 C 143.683 47.641,143.833 48.493,143.833 48.644 C 143.833 48.908,141.694 50.333,141.298 50.333 C 140.383 50.333,139.559 52.088,140.292 52.476 C 140.691 52.688,142.796 53.000,143.824 53.000 C 144.287 53.000,144.667 53.028,144.667 53.062 C 144.667 53.388,145.555 57.292,145.685 57.534 C 145.924 57.980,147.007 57.890,147.246 57.404 C 147.340 57.214,147.776 56.308,148.215 55.391 L 149.013 53.725 151.048 54.025 C 153.578 54.398,153.434 54.399,153.833 54.000 C 154.423 53.411,154.251 53.063,152.574 51.457 C 150.732 49.692,150.767 49.901,151.924 47.615 C 153.164 45.163,152.594 44.042,150.705 45.221 C 150.363 45.435,149.538 45.886,148.872 46.223 L 147.660 46.836 146.538 45.732 C 144.585 43.809,144.015 43.509,143.429 44.095 M146.186 45.954 L 147.652 47.367 149.451 46.392 C 152.679 44.642,152.821 44.733,151.445 47.664 C 150.271 50.166,150.213 49.817,152.083 51.553 C 154.452 53.752,154.319 54.000,150.985 53.594 C 149.775 53.446,148.766 53.346,148.742 53.371 C 148.718 53.396,148.268 54.335,147.741 55.458 C 146.330 58.468,146.076 58.421,145.476 55.046 C 145.026 52.520,145.344 52.807,142.667 52.502 C 139.470 52.136,139.429 51.862,142.333 50.243 C 143.433 49.630,144.332 49.081,144.331 49.023 C 144.329 48.964,144.179 48.098,143.997 47.097 C 143.353 43.551,143.574 43.435,146.186 45.954 M126.821 50.321 C 125.890 51.251,126.474 52.649,127.799 52.661 C 129.043 52.673,129.647 51.096,128.726 50.242 C 128.119 49.680,127.433 49.708,126.821 50.321 M128.500 50.500 C 129.472 51.472,128.190 52.841,127.106 51.988 C 126.557 51.556,126.548 51.104,127.076 50.576 C 127.572 50.080,128.054 50.054,128.500 50.500 M97.560 52.822 C 95.946 53.128,95.084 53.459,94.219 54.104 C 93.928 54.322,93.611 54.500,93.515 54.500 C 93.321 54.500,91.561 56.302,91.271 56.799 C 90.439 58.222,89.920 59.413,89.730 60.333 C 89.608 60.929,89.467 61.584,89.418 61.788 L 89.329 62.160 88.497 61.832 C 85.739 60.745,80.964 60.432,77.917 61.139 C 76.749 61.410,76.132 61.677,73.992 62.833 C 72.669 63.548,69.833 66.895,69.833 67.742 C 69.833 67.851,71.556 69.163,72.270 69.597 C 72.584 69.788,73.045 70.134,73.295 70.364 C 73.704 70.741,76.328 72.674,77.712 73.617 C 78.008 73.818,78.438 74.144,78.667 74.341 C 79.042 74.664,82.015 76.843,83.376 77.794 C 83.674 78.001,84.067 78.304,84.250 78.467 C 84.433 78.629,85.371 79.318,86.333 79.998 C 87.296 80.678,88.321 81.425,88.611 81.659 C 88.902 81.892,89.598 82.421,90.158 82.833 C 90.718 83.246,91.586 83.902,92.086 84.292 C 92.586 84.681,93.039 85.000,93.092 85.000 C 93.145 85.000,93.435 85.187,93.735 85.417 C 94.334 85.873,94.500 85.925,94.500 85.656 C 94.500 85.074,95.773 82.823,96.546 82.039 C 98.347 80.211,101.662 79.565,104.601 80.469 C 105.253 80.669,105.853 80.833,105.935 80.833 C 106.016 80.833,106.087 80.252,106.091 79.542 C 106.100 77.892,106.629 76.138,107.415 75.148 C 107.735 74.746,107.997 74.353,107.998 74.275 C 108.003 73.848,111.404 71.310,112.260 71.096 C 112.838 70.951,112.597 70.107,111.591 68.750 C 111.387 68.475,111.015 67.837,110.764 67.333 C 110.513 66.829,110.125 66.178,109.904 65.886 C 109.682 65.594,109.500 65.276,109.500 65.179 C 109.500 65.083,109.162 64.477,108.750 63.833 C 108.337 63.190,108.000 62.599,108.000 62.522 C 108.000 62.444,107.812 62.103,107.583 61.765 C 107.353 61.427,106.894 60.648,106.563 60.035 C 106.232 59.422,105.820 58.741,105.647 58.521 C 105.475 58.301,105.333 58.038,105.333 57.936 C 105.333 57.834,104.995 57.237,104.583 56.610 C 104.171 55.982,103.833 55.404,103.833 55.323 C 103.833 55.243,103.536 54.718,103.173 54.156 C 102.809 53.593,102.467 52.991,102.411 52.817 C 102.278 52.398,99.785 52.401,97.560 52.822 M102.101 53.125 C 102.201 53.285,103.388 55.329,104.739 57.667 C 107.244 61.999,107.973 63.256,110.649 67.860 C 111.484 69.296,112.167 70.503,112.167 70.543 C 112.167 70.583,111.545 70.995,110.786 71.459 C 107.576 73.421,105.682 76.449,105.670 79.643 C 105.667 80.265,105.625 80.353,105.375 80.257 C 103.358 79.481,99.910 79.592,98.079 80.491 C 96.475 81.279,94.333 83.844,94.333 84.979 C 94.333 85.373,93.878 85.083,89.986 82.208 C 84.502 78.159,83.351 77.310,81.063 75.629 C 79.974 74.829,77.246 72.817,75.000 71.158 C 72.754 69.499,70.767 68.033,70.585 67.902 C 70.087 67.543,70.739 66.422,72.417 64.750 C 76.313 60.871,81.892 60.002,88.493 62.248 C 89.580 62.617,89.667 62.625,89.667 62.350 C 89.667 58.902,92.845 54.659,96.290 53.511 C 98.416 52.802,101.762 52.580,102.101 53.125 M312.167 65.578 C 309.998 65.803,308.879 66.043,307.371 66.608 C 306.796 66.824,306.216 67.000,306.083 67.000 C 305.278 67.000,299.781 69.967,298.952 70.850 C 298.788 71.024,298.590 71.167,298.512 71.167 C 298.434 71.167,297.727 71.804,296.941 72.583 C 295.224 74.285,295.607 74.236,291.096 73.322 C 282.657 71.611,274.694 71.760,269.113 73.734 C 267.401 74.339,267.379 74.352,266.218 75.402 C 264.471 76.982,264.372 80.485,266.018 82.526 C 266.339 82.924,266.771 83.494,266.979 83.792 C 267.376 84.362,267.728 84.479,267.950 84.115 C 268.084 83.896,269.097 83.287,270.500 82.582 C 274.565 80.540,281.384 80.236,288.919 81.759 C 290.109 82.000,291.106 82.219,291.134 82.246 C 291.228 82.338,290.173 86.413,289.579 88.255 C 289.460 88.624,289.311 89.224,289.249 89.588 C 289.187 89.952,288.855 91.225,288.511 92.417 C 288.166 93.608,287.807 94.958,287.712 95.417 C 287.617 95.875,287.274 97.188,286.950 98.333 C 286.626 99.479,286.051 101.579,285.673 103.000 C 285.295 104.421,284.752 106.408,284.466 107.417 C 284.180 108.425,283.871 109.625,283.779 110.083 C 283.688 110.542,283.287 112.030,282.890 113.391 C 282.492 114.752,282.167 115.976,282.167 116.110 C 282.167 116.245,281.867 117.358,281.500 118.583 C 281.133 119.809,280.833 120.928,280.833 121.070 C 280.833 121.212,280.638 121.986,280.400 122.789 C 280.161 123.593,279.814 124.850,279.628 125.583 C 279.442 126.317,278.999 127.929,278.644 129.167 C 278.289 130.404,277.999 131.581,277.999 131.783 C 278.003 133.884,271.442 139.116,268.296 139.519 C 262.252 140.293,260.357 135.563,263.104 126.562 C 263.416 125.543,263.746 124.300,263.838 123.802 C 263.930 123.304,264.182 122.338,264.397 121.656 C 264.612 120.974,264.921 119.854,265.083 119.167 C 265.246 118.479,265.590 117.204,265.848 116.333 C 266.107 115.462,266.398 114.412,266.496 114.000 C 266.801 112.713,267.129 111.470,267.558 109.970 L 267.971 108.524 266.777 108.173 C 266.121 107.980,265.412 107.750,265.202 107.662 C 262.756 106.632,258.333 108.731,258.333 110.922 C 258.333 111.521,258.164 111.505,257.301 110.823 C 256.844 110.462,256.395 110.167,256.302 110.167 C 256.210 110.167,255.936 110.029,255.692 109.861 C 253.506 108.350,247.886 107.937,244.333 109.025 C 242.515 109.582,238.613 111.644,237.600 112.583 C 237.352 112.812,237.085 113.000,237.007 113.000 C 236.543 113.000,232.704 117.178,231.570 118.917 C 231.211 119.467,230.874 119.954,230.820 120.000 C 230.767 120.046,230.440 120.646,230.093 121.333 C 229.747 122.021,229.401 122.661,229.324 122.757 C 228.990 123.171,227.635 127.354,227.491 128.417 C 227.404 129.058,227.249 130.221,227.146 131.000 C 226.326 137.245,229.268 144.191,233.712 146.502 C 234.099 146.703,234.682 147.005,235.007 147.171 C 239.527 149.491,247.972 147.996,252.636 144.051 C 252.940 143.794,253.540 143.281,253.969 142.912 C 255.357 141.718,255.280 141.746,255.576 142.319 C 256.261 143.643,258.534 145.776,260.278 146.732 C 263.372 148.427,266.750 148.704,271.730 147.671 C 272.691 147.471,275.616 146.162,276.625 145.479 C 277.015 145.216,277.664 144.775,278.069 144.500 C 278.651 144.104,278.990 143.998,279.694 143.991 C 280.183 143.985,280.843 143.892,281.160 143.782 L 281.737 143.583 283.020 144.833 C 285.444 147.195,288.185 148.215,292.167 148.237 C 294.769 148.251,298.026 147.647,298.917 146.985 C 299.009 146.917,299.484 146.704,299.972 146.511 C 304.752 144.627,311.040 137.601,312.809 132.167 C 312.914 131.846,313.184 131.021,313.410 130.333 C 314.862 125.922,314.829 120.751,313.325 116.939 C 312.961 116.015,312.451 114.994,312.192 114.671 C 311.933 114.348,311.623 113.896,311.503 113.667 C 311.001 112.703,308.443 110.494,306.953 109.735 C 303.342 107.897,296.777 108.007,293.470 109.961 C 292.760 110.380,292.795 109.793,293.669 106.667 C 294.302 104.400,294.628 103.204,294.983 101.833 C 295.185 101.054,295.466 100.042,295.608 99.583 C 295.749 99.125,295.997 98.188,296.159 97.500 C 296.321 96.813,296.678 95.462,296.953 94.500 C 297.228 93.537,297.569 92.263,297.712 91.667 C 297.945 90.693,298.248 89.554,299.352 85.501 C 299.540 84.814,299.718 84.226,299.749 84.195 C 299.780 84.164,300.618 84.332,301.611 84.569 C 311.097 86.828,317.412 87.070,321.073 85.315 C 321.434 85.142,321.818 85.000,321.925 85.000 C 322.212 85.000,324.505 83.155,325.048 82.488 C 327.333 79.679,328.541 75.217,327.744 72.532 C 327.169 70.596,324.567 67.353,323.346 67.053 C 323.110 66.995,322.767 66.852,322.583 66.735 C 320.756 65.571,316.638 65.114,312.167 65.578 M335.750 71.144 C 335.118 71.310,334.495 71.635,334.142 71.981 C 333.992 72.129,333.637 72.461,333.355 72.719 C 332.829 73.198,332.233 74.818,331.563 77.583 C 331.407 78.225,330.996 79.725,330.649 80.917 C 330.303 82.108,329.913 83.571,329.783 84.167 C 329.653 84.762,329.305 86.112,329.011 87.167 C 328.716 88.221,328.175 90.208,327.807 91.583 C 327.440 92.958,326.818 95.246,326.424 96.667 C 326.030 98.087,325.613 99.662,325.497 100.167 C 325.381 100.671,325.106 101.646,324.885 102.333 C 324.664 103.021,324.416 103.976,324.334 104.456 C 324.252 104.936,323.921 106.173,323.598 107.206 C 323.275 108.238,322.908 109.571,322.782 110.167 C 322.656 110.763,322.309 112.112,322.011 113.167 C 320.733 117.685,320.425 118.818,320.157 120.000 C 320.000 120.688,319.613 122.150,319.296 123.250 C 316.795 131.921,316.816 136.991,319.370 141.276 C 319.671 141.781,320.013 142.371,320.130 142.588 C 321.220 144.604,324.864 147.196,327.569 147.877 C 330.602 148.642,336.689 148.053,338.248 146.844 C 338.341 146.772,338.775 146.579,339.214 146.415 C 339.652 146.251,340.364 145.866,340.797 145.559 C 341.229 145.251,341.640 145.000,341.711 145.000 C 341.908 145.000,343.977 143.377,344.917 142.486 L 345.750 141.695 346.250 142.279 C 348.580 145.000,351.780 147.158,354.230 147.659 C 354.608 147.736,355.517 147.936,356.250 148.104 C 358.293 148.572,362.150 148.535,364.750 148.022 C 367.646 147.451,371.035 146.365,372.655 145.489 C 373.152 145.220,373.643 145.000,373.746 145.000 C 373.848 145.000,374.470 144.668,375.128 144.263 C 375.785 143.857,376.462 143.482,376.632 143.428 C 376.802 143.374,377.088 143.193,377.267 143.026 C 377.445 142.860,377.815 142.582,378.088 142.408 C 380.397 140.940,386.000 135.413,386.000 134.603 C 386.000 134.559,386.238 134.140,386.528 133.673 C 387.532 132.058,387.381 129.742,386.155 127.925 C 384.969 126.168,380.500 124.685,380.500 126.048 C 380.500 126.748,378.967 129.802,377.960 131.109 C 376.699 132.746,372.118 136.665,371.464 136.666 C 371.398 136.667,370.841 136.944,370.224 137.283 C 367.502 138.779,363.508 139.835,360.575 139.833 C 358.273 139.831,355.520 139.077,354.844 138.263 C 354.724 138.118,354.534 138.000,354.422 138.000 C 353.435 138.000,351.864 134.745,351.704 132.368 L 351.622 131.153 352.436 131.656 C 354.641 133.018,360.298 132.984,363.583 131.588 C 363.858 131.471,364.458 131.238,364.917 131.070 C 365.375 130.902,366.125 130.534,366.583 130.253 C 367.042 129.971,367.617 129.639,367.862 129.515 C 368.583 129.152,371.031 127.153,371.734 126.353 C 371.926 126.135,372.365 125.660,372.708 125.298 C 373.052 124.936,373.333 124.579,373.333 124.505 C 373.333 124.432,373.617 123.932,373.963 123.394 C 375.856 120.455,375.941 117.047,374.203 113.792 C 373.971 113.356,373.734 113.000,373.678 113.000 C 373.622 113.000,373.434 112.737,373.262 112.417 C 373.089 112.096,372.896 111.833,372.833 111.833 C 372.770 111.833,372.426 111.541,372.068 111.183 C 371.710 110.825,371.117 110.362,370.750 110.155 C 370.383 109.947,369.759 109.593,369.364 109.368 C 366.028 107.471,359.330 108.281,355.055 111.099 C 354.581 111.411,354.149 111.667,354.095 111.667 C 353.949 111.667,351.503 113.496,351.109 113.900 C 350.921 114.093,350.603 114.363,350.400 114.501 C 349.435 115.160,345.500 120.194,345.500 120.770 C 345.500 120.826,345.234 121.439,344.909 122.133 C 344.087 123.890,343.000 128.213,343.000 129.729 C 343.000 132.277,339.098 136.756,335.153 138.735 L 333.555 139.537 331.653 139.551 C 327.229 139.585,325.087 135.751,326.501 130.333 C 326.705 129.554,326.926 128.617,326.993 128.250 C 327.059 127.883,327.385 126.683,327.716 125.583 C 328.047 124.483,328.424 123.096,328.554 122.500 C 328.683 121.904,328.993 120.742,329.242 119.917 C 329.491 119.092,329.755 118.079,329.829 117.667 C 329.904 117.254,330.223 116.017,330.539 114.917 C 330.855 113.817,331.270 112.317,331.460 111.583 C 332.055 109.285,332.668 107.000,333.339 104.583 C 333.695 103.300,334.102 101.763,334.245 101.167 C 334.387 100.571,334.727 99.333,335.000 98.417 C 335.273 97.500,335.497 96.628,335.498 96.479 C 335.499 96.331,335.770 95.318,336.100 94.230 C 336.430 93.142,336.759 91.914,336.830 91.501 C 336.902 91.088,337.159 90.112,337.400 89.333 C 337.641 88.554,337.954 87.392,338.096 86.750 C 338.238 86.108,338.649 84.594,339.010 83.386 C 339.371 82.177,339.667 81.072,339.667 80.930 C 339.667 80.788,339.862 80.014,340.101 79.211 C 340.340 78.407,340.647 77.300,340.784 76.750 C 340.921 76.200,341.250 74.962,341.516 73.999 C 341.782 73.036,342.000 72.136,341.999 71.999 C 341.998 71.429,337.172 70.769,335.750 71.144 M317.746 74.183 C 318.146 74.284,318.643 74.547,318.851 74.769 L 319.229 75.172 318.875 75.794 C 317.659 77.931,314.692 78.341,308.887 77.175 C 307.495 76.895,306.295 76.666,306.220 76.664 C 305.764 76.656,308.382 75.432,309.919 74.935 C 312.717 74.031,315.920 73.723,317.746 74.183 M15.257 75.542 C 14.081 79.234,15.337 82.926,18.074 83.826 C 19.220 84.203,24.260 85.000,25.496 85.000 C 26.556 85.000,26.571 85.042,26.071 86.688 C 25.838 87.455,25.510 88.683,25.343 89.417 C 25.176 90.150,24.810 91.537,24.530 92.500 C 24.250 93.462,23.913 94.700,23.780 95.250 C 23.648 95.800,23.308 97.075,23.026 98.083 C 22.744 99.092,22.202 101.079,21.822 102.500 C 21.441 103.921,20.864 106.021,20.538 107.167 C 20.213 108.313,19.818 109.813,19.662 110.500 C 19.391 111.694,18.998 113.141,17.736 117.583 C 17.424 118.683,17.103 119.921,17.024 120.333 C 16.886 121.049,16.251 123.364,14.820 128.370 C 14.461 129.627,14.165 130.789,14.163 130.953 C 14.160 131.116,13.908 132.072,13.601 133.077 C 12.929 135.278,13.352 135.086,8.643 135.327 C 4.722 135.527,3.768 135.683,2.914 136.263 C 2.586 136.485,2.249 136.667,2.165 136.667 C 1.863 136.667,0.691 138.461,0.439 139.309 C 0.195 140.132,0.192 142.036,0.433 143.625 L 0.515 144.167 16.232 144.167 L 31.949 144.167 32.059 142.117 C 32.171 140.023,31.966 138.674,31.454 138.133 C 31.342 138.014,31.051 137.651,30.809 137.325 C 29.786 135.954,27.609 135.354,23.583 135.335 C 21.564 135.326,21.544 135.308,21.979 133.895 C 22.172 133.265,22.402 132.375,22.489 131.917 C 22.577 131.458,22.907 130.221,23.224 129.167 C 23.540 128.112,23.833 127.025,23.875 126.750 C 23.916 126.475,24.260 125.162,24.638 123.833 C 25.747 119.935,26.188 118.319,26.458 117.167 C 26.598 116.571,27.002 115.095,27.356 113.886 C 27.710 112.678,28.000 111.567,28.000 111.417 C 28.000 111.267,28.297 110.155,28.660 108.947 C 29.023 107.739,29.426 106.263,29.556 105.667 C 29.686 105.071,30.018 103.796,30.294 102.833 C 30.571 101.871,30.907 100.633,31.043 100.083 C 31.178 99.533,31.531 98.221,31.827 97.167 C 32.122 96.112,32.596 94.425,32.878 93.417 C 33.161 92.408,33.521 91.021,33.678 90.333 C 34.007 88.887,34.796 86.214,35.013 85.809 C 35.142 85.568,35.636 85.522,38.872 85.451 C 43.228 85.357,43.695 85.253,44.956 84.101 C 46.328 82.848,46.395 82.651,46.469 79.654 L 46.534 77.057 43.309 76.860 C 41.535 76.751,39.483 76.663,38.750 76.663 C 38.017 76.663,32.842 76.364,27.250 75.999 C 15.961 75.262,15.353 75.239,15.257 75.542 M174.858 77.678 C 174.681 77.868,174.449 78.374,174.343 78.803 C 174.236 79.232,173.814 80.671,173.405 82.000 C 172.997 83.329,172.663 84.585,172.664 84.792 C 172.667 85.163,172.642 85.167,170.208 85.185 C 165.488 85.221,164.651 85.330,164.286 85.956 C 163.696 86.969,164.203 87.666,166.680 89.250 C 167.469 89.754,169.804 91.358,170.129 91.620 L 170.508 91.924 170.171 92.905 C 169.985 93.444,169.833 94.006,169.833 94.154 C 169.833 94.301,169.533 95.339,169.167 96.459 C 168.489 98.531,168.363 99.433,168.673 100.011 C 168.903 100.442,170.506 100.477,170.853 100.059 C 170.978 99.909,171.906 99.167,172.915 98.411 C 173.924 97.655,175.042 96.803,175.398 96.518 C 176.223 95.858,176.397 95.867,177.485 96.625 C 177.978 96.969,178.615 97.388,178.899 97.558 C 179.184 97.727,179.567 97.997,179.750 98.159 C 181.529 99.729,183.252 100.419,183.833 99.795 C 184.510 99.068,184.467 98.722,183.320 95.667 C 183.062 94.979,182.635 93.771,182.371 92.983 L 181.892 91.548 182.302 91.184 C 182.527 90.983,182.923 90.710,183.181 90.576 C 183.439 90.443,183.710 90.230,183.783 90.103 C 183.857 89.976,184.254 89.637,184.667 89.350 C 187.426 87.426,187.914 86.950,187.967 86.129 C 188.053 84.812,187.898 84.771,183.374 84.914 L 179.583 85.034 179.090 83.725 C 178.819 83.006,178.501 82.229,178.383 82.000 C 178.265 81.771,178.168 81.454,178.168 81.296 C 178.166 80.762,176.897 77.691,176.584 77.461 C 176.227 77.199,175.182 77.331,174.858 77.678 M115.458 82.013 C 115.064 82.243,115.080 83.329,115.507 85.250 L 115.841 86.750 115.462 87.061 C 115.254 87.231,114.521 87.656,113.833 88.004 C 111.446 89.212,111.030 90.639,113.054 90.681 C 113.437 90.689,114.384 90.784,115.160 90.892 L 116.569 91.087 116.783 92.169 C 117.368 95.136,117.524 95.668,117.860 95.848 C 118.445 96.160,118.987 95.890,119.320 95.120 C 119.984 93.582,120.945 91.667,121.016 91.739 C 121.215 91.937,125.349 92.170,125.666 92.000 C 126.387 91.614,126.103 91.016,124.420 89.380 C 123.239 88.232,122.866 87.769,122.943 87.547 C 123.000 87.384,123.422 86.467,123.881 85.509 C 125.023 83.127,124.405 82.024,122.611 83.242 C 122.267 83.476,121.886 83.667,121.765 83.667 C 121.644 83.667,121.366 83.806,121.147 83.976 C 120.929 84.147,120.501 84.414,120.197 84.570 L 119.643 84.854 118.947 84.209 C 118.563 83.855,117.851 83.175,117.364 82.699 C 116.475 81.830,116.041 81.674,115.458 82.013 M117.477 83.376 C 118.177 84.042,118.944 84.756,119.181 84.963 L 119.612 85.340 121.586 84.252 C 124.508 82.641,124.698 82.834,123.228 85.926 L 122.289 87.901 123.978 89.527 C 124.907 90.421,125.667 91.222,125.667 91.306 C 125.667 91.819,125.163 91.878,123.123 91.605 C 122.001 91.455,120.985 91.333,120.865 91.333 C 120.744 91.333,120.199 92.271,119.654 93.417 C 118.243 96.380,117.932 96.326,117.363 93.018 C 116.937 90.537,117.296 90.875,114.702 90.511 C 111.371 90.043,111.312 89.830,114.101 88.316 C 116.415 87.061,116.280 87.337,115.828 84.758 C 115.534 83.078,115.502 82.615,115.668 82.416 C 115.994 82.023,116.129 82.094,117.477 83.376 M103.250 106.165 C 102.140 106.402,99.833 107.656,99.833 108.022 C 99.833 108.110,99.628 108.385,99.376 108.633 C 98.816 109.185,97.139 111.293,96.287 112.514 C 95.007 114.350,94.832 114.616,93.890 116.167 C 92.899 117.798,91.345 120.788,91.334 121.083 C 91.331 121.175,91.022 122.037,90.649 123.000 C 90.275 123.962,89.897 125.050,89.809 125.417 C 89.721 125.783,89.397 126.871,89.089 127.833 C 88.781 128.796,88.479 129.808,88.418 130.083 C 88.357 130.358,88.080 131.071,87.803 131.667 C 87.526 132.262,87.236 132.912,87.160 133.109 C 86.927 133.708,84.877 136.267,84.038 137.006 C 79.979 140.579,76.077 141.375,73.422 139.171 C 71.925 137.928,71.471 134.517,72.348 131.083 C 75.074 120.401,70.105 111.627,60.917 110.898 C 58.881 110.737,55.132 111.428,53.458 112.273 C 52.552 112.730,52.554 112.735,53.000 111.126 C 53.503 109.311,53.467 109.037,52.708 108.914 C 52.365 108.858,51.434 108.658,50.641 108.468 C 48.367 107.926,46.199 108.563,45.126 110.090 C 44.648 110.770,43.670 113.431,43.663 114.068 C 43.661 114.260,43.467 115.054,43.232 115.833 C 42.996 116.612,42.650 117.850,42.462 118.583 C 42.275 119.317,41.831 120.939,41.477 122.188 C 41.123 123.437,40.833 124.586,40.833 124.741 C 40.833 124.895,40.490 126.235,40.071 127.719 C 39.332 130.336,38.769 132.375,37.350 137.583 C 36.975 138.958,36.593 140.486,36.501 140.978 C 36.409 141.471,36.222 142.252,36.084 142.715 C 35.780 143.739,35.563 143.565,37.928 144.184 C 40.304 144.805,41.244 144.766,42.600 143.990 C 44.050 143.161,44.552 142.473,45.085 140.583 C 45.241 140.033,45.539 139.021,45.748 138.333 C 45.957 137.646,46.177 136.821,46.237 136.500 C 46.356 135.858,47.542 131.404,47.945 130.083 C 48.085 129.625,48.417 128.817,48.683 128.287 C 48.949 127.757,49.167 127.219,49.167 127.092 C 49.167 126.965,49.223 126.836,49.292 126.806 C 49.360 126.775,49.769 126.219,50.199 125.571 C 50.935 124.462,53.868 121.333,54.171 121.333 C 54.247 121.333,54.409 121.237,54.530 121.119 C 54.920 120.740,56.344 119.833,56.550 119.833 C 56.660 119.833,57.163 119.673,57.667 119.477 C 60.420 118.407,63.278 119.515,64.431 122.100 C 64.939 123.239,64.851 127.130,64.267 129.333 C 63.050 133.922,63.599 138.627,65.816 142.609 C 67.984 146.503,72.709 148.906,77.628 148.617 C 79.834 148.487,83.337 147.486,84.526 146.646 C 84.769 146.474,85.051 146.333,85.152 146.333 C 85.786 146.333,89.954 142.617,91.429 140.736 C 93.681 137.864,95.657 133.909,97.000 129.583 C 97.114 129.217,97.380 128.533,97.591 128.064 C 97.802 127.595,98.062 126.888,98.168 126.494 C 98.275 126.099,98.612 125.246,98.918 124.597 C 99.224 123.948,99.667 123.004,99.903 122.500 C 100.601 121.007,101.119 120.115,102.042 118.815 C 102.294 118.460,102.500 118.120,102.500 118.059 C 102.500 117.998,102.700 117.686,102.945 117.365 L 103.389 116.782 103.695 117.160 C 103.863 117.367,104.000 117.647,104.000 117.781 C 104.000 117.915,104.300 118.539,104.667 119.167 C 105.033 119.794,105.333 120.370,105.334 120.446 C 105.334 120.521,105.671 121.097,106.084 121.724 C 106.496 122.351,106.833 122.933,106.833 123.017 C 106.833 123.102,107.133 123.610,107.500 124.147 C 107.867 124.684,108.167 125.194,108.167 125.279 C 108.167 125.365,108.402 125.806,108.690 126.259 C 109.254 127.147,110.218 129.285,110.603 130.500 C 111.182 132.327,110.824 135.705,109.846 137.641 C 107.982 141.333,103.144 141.434,100.830 137.829 C 100.207 136.858,100.237 136.864,99.023 137.469 C 98.506 137.727,97.709 138.120,97.252 138.344 C 93.654 140.103,93.927 144.146,97.796 146.394 C 97.976 146.498,98.318 146.722,98.557 146.892 C 101.628 149.069,108.862 149.155,111.877 147.050 C 112.245 146.793,112.704 146.494,112.898 146.386 C 117.175 143.989,120.061 135.828,118.824 129.633 C 118.318 127.102,116.142 122.207,114.118 119.045 C 113.870 118.657,113.667 118.281,113.667 118.209 C 113.667 118.138,113.410 117.698,113.096 117.232 C 112.783 116.766,112.404 116.092,112.255 115.734 C 112.106 115.376,111.801 114.817,111.576 114.492 C 110.895 113.505,109.801 110.522,109.624 109.167 C 109.405 107.498,109.428 107.547,108.842 107.419 C 108.560 107.357,107.748 107.056,107.039 106.750 C 105.640 106.148,104.300 105.941,103.250 106.165 M133.833 107.230 C 131.526 107.739,130.498 109.004,129.618 112.417 C 129.382 113.333,128.948 114.983,128.654 116.083 C 128.359 117.183,128.043 118.458,127.950 118.917 C 127.858 119.375,127.456 120.901,127.058 122.308 C 126.659 123.715,126.333 124.992,126.333 125.145 C 126.333 125.297,126.069 126.321,125.746 127.419 C 125.423 128.517,125.091 129.790,125.010 130.249 C 124.928 130.708,124.588 132.096,124.255 133.333 C 123.333 136.761,122.234 140.931,121.861 142.417 C 121.677 143.150,121.380 144.275,121.202 144.917 C 121.024 145.558,120.800 146.458,120.705 146.917 C 120.610 147.375,120.258 148.762,119.922 150.000 C 119.587 151.237,119.022 153.375,118.667 154.750 C 118.312 156.125,117.783 158.150,117.491 159.250 C 117.200 160.350,116.850 161.700,116.715 162.250 C 116.579 162.800,116.184 164.337,115.837 165.667 C 114.575 170.493,114.492 169.941,116.583 170.590 C 119.009 171.342,121.384 171.193,122.174 170.241 C 122.284 170.108,122.466 170.000,122.578 170.000 C 123.157 170.000,124.357 167.902,124.676 166.333 C 124.778 165.829,125.187 164.142,125.584 162.583 C 125.981 161.025,126.426 159.262,126.573 158.667 C 127.211 156.068,127.763 153.900,128.441 151.333 C 128.841 149.821,129.166 148.471,129.163 148.333 C 129.155 147.840,129.914 145.333,130.071 145.333 C 130.159 145.333,130.432 145.526,130.678 145.760 C 131.369 146.423,133.329 147.449,134.333 147.674 C 138.748 148.663,142.162 148.436,145.404 146.938 C 146.125 146.606,146.782 146.333,146.865 146.333 C 146.948 146.333,147.468 146.033,148.020 145.667 C 148.572 145.300,149.093 145.000,149.178 145.000 C 149.263 145.000,149.614 144.754,149.958 144.453 C 150.302 144.152,150.846 143.709,151.167 143.469 C 152.478 142.487,154.949 139.907,155.833 138.595 C 155.971 138.391,156.294 137.930,156.553 137.570 C 157.327 136.492,158.375 134.637,158.713 133.750 C 158.887 133.292,159.166 132.617,159.331 132.250 C 159.640 131.566,159.743 131.220,160.316 128.917 C 161.137 125.621,161.207 121.868,160.497 119.250 C 160.298 118.517,160.064 117.617,159.976 117.250 C 159.889 116.883,159.577 116.171,159.283 115.667 C 158.990 115.162,158.637 114.527,158.500 114.255 C 157.902 113.070,155.141 110.604,153.492 109.782 C 149.800 107.942,143.843 107.958,140.199 109.817 C 139.237 110.308,139.168 110.269,139.433 109.390 C 139.869 107.942,139.709 107.814,136.750 107.253 C 135.208 106.960,135.061 106.959,133.833 107.230 M172.434 107.264 C 170.727 107.729,169.433 109.324,168.833 111.705 C 168.508 112.990,167.977 115.002,166.664 119.917 C 166.371 121.017,166.017 122.367,165.879 122.917 C 165.741 123.467,165.341 125.004,164.991 126.333 C 161.713 138.772,167.322 148.280,177.917 148.242 C 180.002 148.235,182.996 147.774,183.803 147.337 C 184.510 146.953,185.876 146.333,186.014 146.333 C 186.184 146.333,188.502 144.884,189.193 144.345 C 189.533 144.081,189.883 143.999,190.693 143.995 C 194.060 143.977,195.389 142.385,196.669 136.833 C 196.785 136.329,197.057 135.356,197.273 134.670 C 197.489 133.984,197.747 132.976,197.846 132.429 C 198.099 131.033,199.277 127.412,199.802 126.417 C 200.044 125.958,200.388 125.283,200.567 124.917 C 202.004 121.974,206.130 118.412,209.366 117.322 C 214.362 115.639,217.966 119.985,216.539 125.971 C 216.305 126.952,216.263 127.379,216.395 127.427 C 218.538 128.202,220.915 128.416,222.059 127.937 C 225.359 126.559,226.224 123.596,224.814 118.500 C 224.405 117.024,224.047 116.114,223.586 115.385 C 223.401 115.093,223.063 114.534,222.833 114.144 C 219.736 108.860,211.421 106.785,205.021 109.698 C 203.734 110.284,203.706 110.263,204.063 108.979 C 204.219 108.417,204.325 107.940,204.298 107.919 C 204.213 107.850,201.954 107.359,200.823 107.163 C 198.402 106.744,195.836 107.848,195.061 109.642 C 194.655 110.581,193.993 112.667,193.836 113.500 C 193.700 114.224,193.607 114.555,192.838 117.083 C 192.643 117.725,192.420 118.587,192.344 119.000 C 192.268 119.412,192.008 120.388,191.767 121.167 C 191.525 121.946,191.212 123.108,191.070 123.749 C 190.821 124.875,190.577 125.772,189.845 128.249 C 189.655 128.891,189.500 129.576,189.500 129.772 C 189.500 130.374,188.966 131.888,188.556 132.447 C 188.342 132.739,188.167 133.031,188.167 133.095 C 188.167 133.348,185.067 136.667,184.831 136.667 C 184.774 136.667,184.440 136.922,184.089 137.234 C 182.330 138.800,179.369 139.784,177.083 139.563 C 173.796 139.245,171.805 134.997,172.913 130.667 C 173.042 130.162,173.349 128.962,173.595 128.000 C 173.841 127.037,174.370 125.077,174.771 123.644 C 175.172 122.210,175.500 120.910,175.500 120.755 C 175.500 120.600,175.791 119.448,176.147 118.195 C 176.503 116.942,176.870 115.542,176.963 115.083 C 177.055 114.625,177.352 113.462,177.623 112.500 C 178.133 110.689,178.673 108.395,178.669 108.056 C 178.668 107.949,178.085 107.737,177.375 107.584 C 176.665 107.431,175.812 107.237,175.481 107.153 C 174.672 106.948,173.428 106.993,172.434 107.264 M390.639 111.647 C 387.916 112.224,386.236 115.737,387.250 118.735 C 388.855 123.479,395.978 123.351,397.406 118.552 C 398.696 114.218,395.225 110.675,390.639 111.647 M393.762 112.609 C 398.778 114.291,397.148 121.685,391.845 121.302 C 390.792 121.226,389.068 120.277,388.721 119.583 C 388.630 119.400,388.380 118.923,388.167 118.523 C 386.440 115.279,390.121 111.388,393.762 112.609 M390.458 113.759 C 390.390 113.830,390.333 115.226,390.333 116.861 L 390.333 119.833 391.000 119.833 L 391.667 119.833 391.667 118.667 C 391.667 116.999,392.669 117.447,393.075 119.296 C 393.190 119.819,393.217 119.833,394.078 119.833 L 394.964 119.833 394.476 118.635 C 394.208 117.976,393.920 117.354,393.836 117.253 C 393.738 117.135,393.793 117.001,393.992 116.877 C 394.731 116.416,394.606 114.483,393.811 114.072 C 393.271 113.792,390.660 113.549,390.458 113.759 M392.974 115.491 C 393.040 115.961,392.632 116.333,392.051 116.333 C 391.713 116.333,391.667 116.252,391.667 115.657 L 391.667 114.980 392.292 115.032 C 392.810 115.074,392.926 115.153,392.974 115.491 M149.131 117.399 C 152.209 118.962,152.954 122.016,151.676 127.833 C 151.362 129.265,149.369 132.892,148.063 134.410 C 147.744 134.780,147.419 135.158,147.341 135.250 C 147.262 135.342,146.842 135.717,146.406 136.083 C 145.971 136.450,145.345 136.982,145.016 137.265 C 143.147 138.870,140.237 139.813,137.917 139.564 C 133.688 139.109,132.113 132.496,134.945 127.083 C 135.089 126.808,135.498 126.021,135.854 125.333 C 138.755 119.730,145.629 115.622,149.131 117.399 M251.106 117.320 C 254.942 119.062,255.490 124.466,252.486 130.917 C 249.611 137.091,241.794 141.412,238.130 138.853 C 234.990 136.659,234.869 129.978,237.885 125.342 C 239.237 123.264,239.709 122.639,240.798 121.481 C 244.204 117.861,248.488 116.132,251.106 117.320 M302.333 117.225 C 305.366 118.321,306.698 122.438,305.414 126.750 C 305.169 127.575,304.881 128.550,304.775 128.917 C 304.670 129.283,304.264 130.161,303.875 130.867 C 303.485 131.573,303.167 132.194,303.167 132.246 C 303.167 132.409,301.477 134.547,300.679 135.392 C 299.932 136.183,297.630 138.000,297.374 138.000 C 297.302 138.000,296.983 138.174,296.664 138.387 C 294.849 139.595,291.595 139.999,290.065 139.205 C 287.499 137.875,286.505 134.331,287.489 130.015 C 289.215 122.436,297.352 115.426,302.333 117.225 M365.321 117.439 C 366.370 118.772,364.525 121.946,361.086 124.726 C 360.195 125.446,357.815 126.863,357.250 127.010 C 356.975 127.081,356.225 127.296,355.583 127.488 C 354.942 127.679,353.905 127.884,353.279 127.943 L 352.142 128.050 352.248 127.400 C 352.396 126.490,353.609 124.093,354.474 123.000 C 357.668 118.968,363.979 115.732,365.321 117.439 " stroke="none" fill="#fbfbfb" fill-rule="evenodd"></path><path id="path4" d="M186.875 14.621 C 187.219 14.657,187.781 14.657,188.125 14.621 C 188.469 14.585,188.188 14.556,187.500 14.556 C 186.813 14.556,186.531 14.585,186.875 14.621 M187.625 18.284 C 187.831 18.324,188.169 18.324,188.375 18.284 C 188.581 18.245,188.412 18.212,188.000 18.212 C 187.588 18.212,187.419 18.245,187.625 18.284 M197.875 26.417 C 197.877 26.783,197.911 26.914,197.951 26.706 C 197.991 26.499,197.990 26.199,197.948 26.040 C 197.906 25.880,197.874 26.050,197.875 26.417 M193.199 28.988 C 193.219 29.257,193.285 29.446,193.346 29.409 C 193.458 29.340,193.349 28.500,193.228 28.500 C 193.191 28.500,193.178 28.720,193.199 28.988 M226.906 38.708 L 226.417 39.250 226.958 38.760 C 227.463 38.304,227.577 38.167,227.448 38.167 C 227.419 38.167,227.175 38.410,226.906 38.708 M224.658 41.125 L 224.083 41.750 224.708 41.176 C 225.290 40.641,225.410 40.500,225.283 40.500 C 225.255 40.500,224.974 40.781,224.658 41.125 M222.240 43.708 L 221.750 44.250 222.292 43.760 C 222.797 43.304,222.910 43.167,222.781 43.167 C 222.752 43.167,222.509 43.410,222.240 43.708 M143.875 44.286 C 143.587 44.390,143.613 44.982,143.997 47.097 C 144.179 48.098,144.329 48.964,144.331 49.023 C 144.332 49.081,143.433 49.630,142.333 50.243 C 139.429 51.862,139.470 52.136,142.667 52.502 C 145.344 52.807,145.026 52.520,145.476 55.046 C 146.076 58.421,146.330 58.468,147.741 55.458 C 148.268 54.335,148.718 53.396,148.742 53.371 C 148.766 53.346,149.775 53.446,150.985 53.594 C 154.319 54.000,154.452 53.752,152.083 51.553 C 150.213 49.817,150.271 50.166,151.445 47.664 C 152.821 44.733,152.679 44.642,149.451 46.392 L 147.652 47.367 146.186 45.954 C 144.651 44.473,144.220 44.163,143.875 44.286 M207.073 60.042 L 206.583 60.583 207.125 60.094 C 207.630 59.638,207.743 59.500,207.615 59.500 C 207.586 59.500,207.342 59.744,207.073 60.042 M204.909 62.375 L 204.250 63.083 204.958 62.425 C 205.348 62.062,205.667 61.743,205.667 61.716 C 205.667 61.590,205.522 61.716,204.909 62.375 M200.406 67.208 L 199.917 67.750 200.458 67.260 C 200.963 66.804,201.077 66.667,200.948 66.667 C 200.919 66.667,200.675 66.910,200.406 67.208 M198.406 69.375 L 197.917 69.917 198.458 69.427 C 198.756 69.158,199.000 68.914,199.000 68.885 C 199.000 68.757,198.862 68.870,198.406 69.375 M108.324 73.292 L 107.750 73.917 108.375 73.342 C 108.957 72.808,109.077 72.667,108.949 72.667 C 108.922 72.667,108.640 72.948,108.324 73.292 M115.668 82.416 C 115.502 82.615,115.534 83.078,115.828 84.758 C 116.280 87.337,116.415 87.061,114.101 88.316 C 111.312 89.830,111.371 90.043,114.702 90.511 C 117.296 90.875,116.937 90.537,117.363 93.018 C 117.932 96.326,118.243 96.380,119.654 93.417 C 120.199 92.271,120.744 91.333,120.865 91.333 C 120.985 91.333,122.001 91.455,123.123 91.605 C 125.163 91.878,125.667 91.819,125.667 91.306 C 125.667 91.222,124.907 90.421,123.978 89.527 L 122.289 87.901 123.228 85.926 C 124.698 82.834,124.508 82.641,121.586 84.252 L 119.612 85.340 119.181 84.963 C 118.944 84.756,118.177 84.042,117.477 83.376 C 116.129 82.094,115.994 82.023,115.668 82.416 " stroke="none" fill="#ffcc3e" fill-rule="evenodd"></path></g></svg>