<svg xmlns="http://www.w3.org/2000/svg" width="71" height="71" viewBox="0 0 71 71"><g transform="translate(-375 -3432)"><rect width="71" height="71" rx="10" transform="translate(375 3432)" fill="#fef0c1"/><g transform="translate(318.576 4143)"><path d="M107.917-582.257a11.353,11.353,0,0,0-7.146-7.388.483.483,0,0,0-.638.151c-.275.342-.568.668-.828.972-.439-.417-.746-.741-1.089-1.019a.6.6,0,0,0-.5-.116,14.086,14.086,0,0,0-1.98.95,13.652,13.652,0,0,0-4.583,5.187c-1.247,2.265-2.34,4.615-3.516,6.92a2.273,2.273,0,0,0-.015,2.635,1.857,1.857,0,0,1-1.633.381,17.047,17.047,0,0,1-2.834-.882c-.712-.321-1.249-.446-1.73.274-.007.011-.027.012-.133.057a5.94,5.94,0,0,1-.375-.469c-.195-.294-.424-.287-.7-.128-.542.316-1.077.649-1.635.935a5.439,5.439,0,0,0-2.813,3.416,15.034,15.034,0,0,0-.484,2.931,1.061,1.061,0,0,0,1.064,1.149,1.107,1.107,0,0,0,1.122-1.1c.031-.32.039-.644.077-.963a4.074,4.074,0,0,1,.625-1.917c-.014,2.8-.834,5.489-1.162,8.3h1.348c0,.25,0,.445,0,.64,0,2.27.023,4.541-.017,6.81a1.8,1.8,0,0,0,1.053,1.889h.736a1.753,1.753,0,0,0,1.087-1.866c-.029-2.328-.01-4.657-.009-6.985,0-.154.017-.308.025-.462l.144,0c.011.152.03.3.031.455,0,2.359.022,4.719-.009,7.077a1.645,1.645,0,0,0,1.124,1.783h.644a1.736,1.736,0,0,0,1.1-1.856c-.031-2.316-.01-4.632-.01-6.949v-.55h1.571c-.3-1.626-.583-3.192-.879-4.755a13.372,13.372,0,0,1-.367-4.175,10.959,10.959,0,0,0,1.491.165,5.177,5.177,0,0,0,3.643-1.906c.145-.151.167-.417.256-.625a2.219,2.219,0,0,1,.216-.418,7.361,7.361,0,0,0,.673-.91c.552-1.111,1.046-2.25,1.592-3.364.528-1.078,1.094-2.138,1.642-3.206a13.681,13.681,0,0,1,.07,3.138c-.693,4.683-1.463,9.355-2.206,14.031l-.439,2.766c.87.215,1.7.432,2.533.618.3.068.421.179.417.513q-.03,2.439,0,4.878a3.125,3.125,0,0,0,.209,1.159,2.186,2.186,0,0,0,2.468,1.246,2.193,2.193,0,0,0,1.749-2.1c.026-1.487.01-2.976.012-4.463q0-.262,0-.524l.2-.043a1.785,1.785,0,0,1,.121.444q.015,2.163.005,4.326a2.265,2.265,0,0,0,.729,1.816,2.128,2.128,0,0,0,2.355.4,2.088,2.088,0,0,0,1.363-2.008c.025-1.626.018-3.252,0-4.878,0-.346.112-.451.436-.543.764-.216,1.512-.491,2.254-.776a.483.483,0,0,0,.227-.4q-.818-5.479-1.671-10.952a38.5,38.5,0,0,1-.776-8.495c.008-.123,0-.247,0-.37l.167-.013a22.718,22.718,0,0,1,.38,2.521c.053,1.207-.026,2.419-.039,3.629a1.867,1.867,0,0,0,1.705,1.938,1.847,1.847,0,0,0,2.026-1.649A17.559,17.559,0,0,0,107.917-582.257Z" transform="translate(0 -99.237)"/><path d="M289.41-689.953a4.837,4.837,0,0,0,.785-7.817,6.033,6.033,0,0,0-2.571-1.23h-1.289a2.911,2.911,0,0,1-.3.092,4.933,4.933,0,0,0-3.906,5.119A4.844,4.844,0,0,0,289.41-689.953Z" transform="translate(-187.793)"/><path d="M110.878-491.971a3.075,3.075,0,0,0,3.162-3.02,3.09,3.09,0,0,0-3.069-3.167,3.087,3.087,0,0,0-3.116,3.024A3.086,3.086,0,0,0,110.878-491.971Z" transform="translate(-29.573 -182.357)"/></g></g></svg>