<svg xmlns="http://www.w3.org/2000/svg" width="71" height="71" viewBox="0 0 71 71"><g transform="translate(-968 -3884)"><rect width="71" height="71" rx="10" transform="translate(968 3884)" fill="#ffd1c2"/><path d="M94.371,29.235a5.64,5.64,0,0,1-4.487-.024.175.175,0,0,1,.1-.332,10.788,10.788,0,0,0,4.284.023.175.175,0,0,1,.1.333Zm10.7-22.274a9.4,9.4,0,0,0-5.688-4.149.7.7,0,0,0-.144-1.167C94.525-.625,88.114-.869,84.116,2.985c-3.238,3.121-3.5,7.563-3.464,9.337,0,3.914,0,3.658,0,3.748a.392.392,0,0,0,.783-.026V12.692a6.3,6.3,0,0,1,6.29-6.29h8.91a6.3,6.3,0,0,1,6.29,6.29v3.352a.392.392,0,0,0,.783.026c0-.092,0,.237,0-4.893a4.565,4.565,0,0,1,1.321-3.223.705.705,0,0,0,.2-.407.746.746,0,0,0-.157-.585Zm1.261,30.148v4.129a.7.7,0,0,1-.7.7H78.731a.7.7,0,0,1-.7-.7V37.11A7.21,7.21,0,0,1,85.245,29.9a2.9,2.9,0,0,0,1.6-.473.7.7,0,0,1,.819.051,7.058,7.058,0,0,0,9.008-.021A.7.7,0,0,1,97.5,29.4a2.9,2.9,0,0,0,1.626.492A7.21,7.21,0,0,1,106.336,37.11Zm-6.377,1.945a.7.7,0,0,0-.7-.7h-2.1a.7.7,0,1,0,0,1.4h2.1A.7.7,0,0,0,99.959,39.054ZM96.639,7.8h-8.91a4.9,4.9,0,0,0-4.892,4.892v5.776a9.348,9.348,0,0,0,18.695-.034V12.692A4.9,4.9,0,0,0,96.639,7.8Z" transform="translate(910.816 3898.063)" fill="#010101"/></g></svg>